<svg width="70" height="75" viewBox="0 0 70 75" fill="none" xmlns="http://www.w3.org/2000/svg">
<path d="M58.3333 12.5C58.3333 5.625 53.0833 0 46.6666 0H23.3333C16.9166 0 11.6666 5.625 11.6666 12.5V62.5C11.6666 69.375 16.9166 75 23.3333 75H46.6666C53.0833 75 58.3333 69.375 58.3333 62.5V12.5ZM37.9166 68.75H32.0833C30.3333 68.75 29.1666 67.5 29.1666 65.625C29.1666 63.75 30.3333 62.5 32.0833 62.5H37.9166C39.6666 62.5 40.8333 63.75 40.8333 65.625C40.8333 67.5 39.6666 68.75 37.9166 68.75ZM52.5 53.125C52.5 55 51.3333 56.25 49.5833 56.25H20.4166C18.6666 56.25 17.5 55 17.5 53.125V15.625C17.5 13.75 18.6666 12.5 20.4166 12.5H49.5833C51.3333 12.5 52.5 13.75 52.5 15.625V53.125Z" fill="#04542C"/>
</svg>
