<svg width="51" height="62" viewBox="0 0 51 62" fill="none" xmlns="http://www.w3.org/2000/svg">
<path d="M16.3211 3C14.995 3 13.7232 3.52678 12.7855 4.46447L4.46447 12.7855C3.52678 13.7232 3 14.995 3 16.3211V54.25C3 57.0114 5.23858 59.25 8 59.25H43C45.7614 59.25 48 57.0114 48 54.25V8C48 5.23858 45.7614 3 43 3H16.3211Z" stroke="#04542C" stroke-width="5" stroke-linejoin="round"/>
<path d="M14.25 3V9.25C14.25 12.0114 12.0114 14.25 9.25 14.25H3" stroke="#04542C" stroke-width="5" stroke-linejoin="round"/>
<path d="M12.375 23.625V44.875C12.375 47.6364 14.6136 49.875 17.375 49.875H40.5" stroke="#04542C" stroke-width="5" stroke-linejoin="round"/>
<path d="M12.375 49.875L22.6875 39.5625C24.2408 38.0092 26.7592 38.0092 28.3125 39.5625V39.5625C29.8658 41.1158 32.3842 41.1158 33.9375 39.5625L40.5 33" stroke="#04542C" stroke-width="5" stroke-linejoin="round"/>
</svg>
