<svg width="48" height="64" viewBox="0 0 48 64" fill="none" xmlns="http://www.w3.org/2000/svg">
<g clip-path="url(#clip0_228_785)">
<path d="M42 0H6C2.7975 0 0 2.7975 0 6V58C0 61.2 2.7975 64 6 64H42C45.2025 64 48 61.2025 48 58V6C48 2.7975 45.2 0 42 0ZM8 26C8 24.9 8.9 24 10 24H14C15.1 24 16 24.9 16 26V30C16 31.1 15.1 32 14 32H10C8.9 32 8 31.1 8 30V26ZM8 38C8 36.9 8.9 36 10 36H14C15.1 36 16 36.9 16 38V42C16 43.1 15.1 44 14 44H10C8.9 44 8 43.1 8 42V38ZM28 54C28 55.1001 27.1001 56 26 56H10C8.9 56 8 55.1 8 54V50C8 48.9 8.9 48 10 48H26C27.1001 48 28 48.8999 28 50V54ZM28 42C28 43.1001 27.1001 44 26 44H22C20.9 44 20 43.1 20 42V38C20 36.9 20.9 36 22 36H26C27.1 36 28 36.9 28 38V42ZM28 30C28 31.1 27.1 32 26 32H22C20.9 32 20 31.1 20 30V26C20 24.9 20.9 24 22 24H26C27.1 24 28 24.9 28 26V30ZM40 54C40 55.1001 39.1001 56 38 56H34C32.9001 56 32 55.1001 32 54V50C32 48.8999 32.9001 48 34 48H38C39.1001 48 40 48.8999 40 50V54ZM40 42C40 43.1001 39.1001 44 38 44H34C32.9001 44 32 43.1001 32 42V38C32 36.9 32.9 36 34 36H38C39.1 36 40 36.9 40 38V42ZM40 30C40 31.1 39.1 32 38 32H34C32.9 32 32 31.1 32 30V26C32 24.9 32.9 24 34 24H38C39.1 24 40 24.9 40 26V30ZM40 18C40 19.1 39.1 20 38 20H10C8.9 20 8 19.1 8 18V10C8 8.9 8.9 8 10 8H38C39.1 8 40 8.9 40 10V18Z" fill="#04542C"/>
</g>
<defs>
<clipPath id="clip0_228_785">
<rect width="48" height="64" fill="white"/>
</clipPath>
</defs>
</svg>
