<svg width="30" height="30" viewBox="0 0 30 30" fill="none" xmlns="http://www.w3.org/2000/svg">
<path d="M14.875 19.5C18.0679 19.5 20.6562 16.9116 20.6562 13.7188C20.6562 10.5259 18.0679 7.9375 14.875 7.9375C11.6821 7.9375 9.09375 10.5259 9.09375 13.7188C9.09375 16.9116 11.6821 19.5 14.875 19.5Z" stroke="#64E48E" stroke-width="1.5" stroke-miterlimit="10"/>
<path d="M5.59607 25.1946C6.46602 23.481 7.79346 22.0419 9.43127 21.0366C11.0691 20.0313 12.9533 19.4991 14.875 19.4991C16.7967 19.4991 18.6809 20.0313 20.3187 21.0366C21.9565 22.0419 23.2839 23.481 24.1539 25.1946" stroke="#64E48E" stroke-width="1.5" stroke-linecap="round" stroke-linejoin="round"/>
<path d="M21.8125 4.46875H28.75" stroke="#64E48E" stroke-width="2" stroke-linecap="round" stroke-linejoin="round"/>
<path d="M25.2812 1V7.9375" stroke="#64E48E" stroke-width="2" stroke-linecap="round" stroke-linejoin="round"/>
<path d="M28.5766 12.6926C28.6934 13.4142 28.7514 14.1441 28.75 14.875C28.75 17.6192 27.9363 20.3018 26.4116 22.5836C24.887 24.8653 22.7201 26.6437 20.1847 27.6939C17.6494 28.744 14.8596 29.0188 12.1681 28.4834C9.47664 27.9481 7.00435 26.6266 5.0639 24.6861C3.12345 22.7457 1.80198 20.2734 1.26661 17.5819C0.731241 14.8904 1.00601 12.1006 2.05618 9.56529C3.10634 7.02997 4.88474 4.86299 7.16647 3.33839C9.4482 1.81378 12.1308 1.00003 14.875 1.00003C15.606 0.998591 16.3359 1.05659 17.0574 1.17346" stroke="#64E48E" stroke-width="1.5" stroke-linecap="round" stroke-linejoin="round"/>
</svg>
