<svg width="37" height="37" viewBox="0 0 37 37" fill="none" xmlns="http://www.w3.org/2000/svg">
<g clip-path="url(#clip0_1230_849)">
<path d="M18.5 23.125C21.6929 23.125 24.2812 20.5366 24.2812 17.3438C24.2812 14.1509 21.6929 11.5625 18.5 11.5625C15.3071 11.5625 12.7188 14.1509 12.7188 17.3438C12.7188 20.5366 15.3071 23.125 18.5 23.125Z" stroke="#64E48E" stroke-width="1.5" stroke-miterlimit="10"/>
<path d="M9.22119 28.8196C10.0911 27.106 11.4186 25.6669 13.0564 24.6616C14.6942 23.6563 16.5784 23.1241 18.5001 23.1241C20.4218 23.1241 22.306 23.6563 23.9438 24.6616C25.5816 25.6669 26.9091 27.106 27.779 28.8196" stroke="#64E48E" stroke-width="1.5" stroke-linecap="round" stroke-linejoin="round"/>
<path d="M25.4375 8.09375H32.375" stroke="#64E48E" stroke-width="2" stroke-linecap="round" stroke-linejoin="round"/>
<path d="M28.9062 4.625V11.5625" stroke="#64E48E" stroke-width="2" stroke-linecap="round" stroke-linejoin="round"/>
<path d="M32.2016 16.3176C32.3184 17.0392 32.3764 17.7691 32.375 18.5C32.375 21.2442 31.5613 23.9268 30.0366 26.2086C28.512 28.4903 26.3451 30.2687 23.8097 31.3189C21.2744 32.369 18.4846 32.6438 15.7931 32.1084C13.1016 31.5731 10.6294 30.2516 8.6889 28.3111C6.74845 26.3707 5.42698 23.8984 4.89161 21.2069C4.35624 18.5154 4.63101 15.7256 5.68118 13.1903C6.73134 10.655 8.50974 8.48799 10.7915 6.96339C13.0732 5.43878 15.7558 4.62503 18.5 4.62503C19.231 4.62359 19.9609 4.68159 20.6824 4.79846" stroke="#64E48E" stroke-width="1.5" stroke-linecap="round" stroke-linejoin="round"/>
</g>
<defs>
<clipPath id="clip0_1230_849">
<rect width="37" height="37" fill="white"/>
</clipPath>
</defs>
</svg>
