<svg width="200" height="128" viewBox="0 0 200 128" fill="none" xmlns="http://www.w3.org/2000/svg">
<path d="M57.6679 57.0859C57.7465 57.3506 58.0248 57.5016 58.2895 57.423L62.6037 56.1432C62.8684 56.0647 63.0194 55.7864 62.9408 55.5217C62.8623 55.2569 62.584 55.106 62.3193 55.1845L58.4844 56.3221L57.3468 52.4873C57.2683 52.2226 56.99 52.0716 56.7253 52.1502C56.4605 52.2287 56.3096 52.507 56.3881 52.7717L57.6679 57.0859ZM58.5868 57.1821C59.0045 56.412 59.4287 55.6581 59.8592 54.9202L58.9954 54.4164C58.5597 55.1633 58.1304 55.9262 57.7078 56.7053L58.5868 57.1821ZM62.5873 50.5738C63.5668 49.1234 64.5728 47.7442 65.6027 46.4334L64.8163 45.8156C63.7713 47.1456 62.7513 48.5442 61.7586 50.0141L62.5873 50.5738ZM68.9288 42.5206C70.1141 41.2332 71.3252 40.0247 72.5587 38.8916L71.8822 38.1551C70.6279 39.3073 69.3971 40.5355 68.1931 41.8433L68.9288 42.5206ZM76.4741 35.598C77.8546 34.5375 79.2574 33.5603 80.6784 32.6617L80.144 31.8165C78.6974 32.7312 77.2696 33.7258 75.8649 34.805L76.4741 35.598ZM85.1278 30.1277C86.6696 29.3417 88.2271 28.6385 89.7954 28.0127L89.4249 27.0839C87.8287 27.7208 86.2432 28.4366 84.6736 29.2368L85.1278 30.1277ZM94.6333 26.3306C96.2869 25.837 97.9467 25.4214 99.6072 25.0777L99.4045 24.0985C97.7168 24.4478 96.0292 24.8703 94.3473 25.3724L94.6333 26.3306ZM104.666 24.2461C106.379 24.0351 108.086 23.8943 109.782 23.8168L109.736 22.8178C108.016 22.8964 106.283 23.0393 104.543 23.2536L104.666 24.2461ZM114.917 23.7697C116.647 23.8158 118.357 23.9227 120.041 24.0827L120.136 23.0872C118.43 22.9251 116.697 22.8168 114.943 22.7701L114.917 23.7697ZM125.138 24.736C126.863 25.0139 128.549 25.3429 130.188 25.7137L130.408 24.7384C128.75 24.3631 127.044 24.0301 125.297 23.7488L125.138 24.736ZM135.165 27.0043C136.868 27.5031 138.5 28.0414 140.049 28.6062L140.391 27.6667C138.822 27.0945 137.169 26.5495 135.446 26.0447L135.165 27.0043ZM144.806 30.5308C145.611 30.8914 146.382 31.2561 147.117 31.6224L147.563 30.7275C146.815 30.3549 146.032 29.9842 145.215 29.6182L144.806 30.5308Z" fill="black"/>
<rect x="0.5" y="78.5" width="199" height="49" rx="9.5" fill="white" stroke="black"/>
<path d="M12.0341 97.3636V109H10.2784V97.3636H12.0341ZM16.1534 103.818V109H14.4545V100.273H16.0852V101.693H16.1932C16.3939 101.231 16.7083 100.86 17.1364 100.58C17.5682 100.299 18.1117 100.159 18.767 100.159C19.3617 100.159 19.8826 100.284 20.3295 100.534C20.7765 100.78 21.1231 101.148 21.3693 101.636C21.6155 102.125 21.7386 102.729 21.7386 103.449V109H20.0398V103.653C20.0398 103.021 19.875 102.527 19.5455 102.17C19.2159 101.811 18.7633 101.631 18.1875 101.631C17.7936 101.631 17.4432 101.716 17.1364 101.886C16.8333 102.057 16.5928 102.307 16.4148 102.636C16.2405 102.962 16.1534 103.356 16.1534 103.818ZM29.1591 103.347V104.818H24V103.347H29.1591ZM31.5597 109V97.3636H33.3153V102.42H39.1165V97.3636H40.8778V109H39.1165V103.926H33.3153V109H31.5597ZM46.9744 109.176C46.1563 109.176 45.4422 108.989 44.8324 108.614C44.2225 108.239 43.7491 107.714 43.4119 107.04C43.0748 106.366 42.9062 105.578 42.9062 104.676C42.9062 103.771 43.0748 102.979 43.4119 102.301C43.7491 101.623 44.2225 101.097 44.8324 100.722C45.4422 100.347 46.1563 100.159 46.9744 100.159C47.7926 100.159 48.5066 100.347 49.1165 100.722C49.7263 101.097 50.1998 101.623 50.5369 102.301C50.8741 102.979 51.0426 103.771 51.0426 104.676C51.0426 105.578 50.8741 106.366 50.5369 107.04C50.1998 107.714 49.7263 108.239 49.1165 108.614C48.5066 108.989 47.7926 109.176 46.9744 109.176ZM46.9801 107.75C47.5104 107.75 47.9498 107.61 48.2983 107.33C48.6468 107.049 48.9044 106.676 49.071 106.21C49.2415 105.744 49.3267 105.231 49.3267 104.67C49.3267 104.114 49.2415 103.602 49.071 103.136C48.9044 102.667 48.6468 102.29 48.2983 102.006C47.9498 101.722 47.5104 101.58 46.9801 101.58C46.446 101.58 46.0028 101.722 45.6506 102.006C45.3021 102.29 45.0426 102.667 44.8722 103.136C44.7055 103.602 44.6222 104.114 44.6222 104.67C44.6222 105.231 44.7055 105.744 44.8722 106.21C45.0426 106.676 45.3021 107.049 45.6506 107.33C46.0028 107.61 46.446 107.75 46.9801 107.75ZM58.4673 105.381V100.273H60.1719V109H58.5014V107.489H58.4105C58.2098 107.955 57.8878 108.343 57.4446 108.653C57.0052 108.96 56.4579 109.114 55.8026 109.114C55.242 109.114 54.7457 108.991 54.3139 108.744C53.8859 108.494 53.5488 108.125 53.3026 107.636C53.0601 107.148 52.9389 106.544 52.9389 105.824V100.273H54.6378V105.619C54.6378 106.214 54.8026 106.687 55.1321 107.04C55.4616 107.392 55.8897 107.568 56.4162 107.568C56.7344 107.568 57.0507 107.489 57.3651 107.33C57.6832 107.17 57.9465 106.93 58.1548 106.608C58.367 106.286 58.4711 105.877 58.4673 105.381ZM68.9943 102.403L67.4545 102.676C67.3902 102.479 67.2879 102.292 67.1477 102.114C67.0114 101.936 66.8258 101.79 66.5909 101.676C66.3561 101.562 66.0625 101.506 65.7102 101.506C65.2292 101.506 64.8277 101.614 64.5057 101.83C64.1837 102.042 64.0227 102.316 64.0227 102.653C64.0227 102.945 64.1307 103.18 64.3466 103.358C64.5625 103.536 64.911 103.682 65.392 103.795L66.7784 104.114C67.5814 104.299 68.1799 104.585 68.5739 104.972C68.9678 105.358 69.1648 105.86 69.1648 106.477C69.1648 107 69.0133 107.466 68.7102 107.875C68.411 108.28 67.9924 108.598 67.4545 108.83C66.9205 109.061 66.3011 109.176 65.5966 109.176C64.6193 109.176 63.822 108.968 63.2045 108.551C62.5871 108.131 62.2083 107.534 62.0682 106.761L63.7102 106.511C63.8125 106.939 64.0227 107.263 64.3409 107.483C64.6591 107.699 65.0739 107.807 65.5852 107.807C66.142 107.807 66.5871 107.691 66.9205 107.46C67.2538 107.225 67.4205 106.939 67.4205 106.602C67.4205 106.33 67.3182 106.1 67.1136 105.915C66.9129 105.729 66.6042 105.589 66.1875 105.494L64.7102 105.17C63.8958 104.985 63.2936 104.689 62.9034 104.284C62.517 103.879 62.3239 103.366 62.3239 102.744C62.3239 102.229 62.4678 101.778 62.7557 101.392C63.0436 101.006 63.4413 100.705 63.9489 100.489C64.4564 100.269 65.0379 100.159 65.6932 100.159C66.6364 100.159 67.3788 100.364 67.9205 100.773C68.4621 101.178 68.8201 101.722 68.9943 102.403ZM74.794 109.176C73.9342 109.176 73.1937 108.992 72.5724 108.625C71.955 108.254 71.4777 107.733 71.1406 107.062C70.8073 106.388 70.6406 105.598 70.6406 104.693C70.6406 103.799 70.8073 103.011 71.1406 102.33C71.4777 101.648 71.9474 101.116 72.5497 100.733C73.1558 100.35 73.8641 100.159 74.6747 100.159C75.1671 100.159 75.6444 100.241 76.1065 100.403C76.5687 100.566 76.9834 100.822 77.3509 101.17C77.7183 101.519 78.008 101.972 78.2202 102.528C78.4323 103.081 78.5384 103.754 78.5384 104.545V105.148H71.6009V103.875H76.8736C76.8736 103.428 76.7827 103.032 76.6009 102.688C76.419 102.339 76.1634 102.064 75.8338 101.864C75.508 101.663 75.1255 101.562 74.6861 101.562C74.2088 101.562 73.7921 101.68 73.4361 101.915C73.0838 102.146 72.8111 102.449 72.6179 102.824C72.4285 103.195 72.3338 103.598 72.3338 104.034V105.028C72.3338 105.612 72.4361 106.108 72.6406 106.517C72.849 106.926 73.1387 107.239 73.5099 107.455C73.8812 107.667 74.3149 107.773 74.8111 107.773C75.133 107.773 75.4266 107.727 75.6918 107.636C75.9569 107.542 76.1861 107.402 76.3793 107.216C76.5724 107.03 76.7202 106.801 76.8224 106.528L78.4304 106.818C78.3016 107.292 78.0705 107.706 77.7372 108.062C77.4077 108.415 76.9929 108.689 76.4929 108.886C75.9967 109.08 75.4304 109.176 74.794 109.176ZM84.2202 98.875V97.3636H93.2259V98.875H89.5952V109H87.8452V98.875H84.2202ZM95.0795 109V100.273H96.7784V109H95.0795ZM95.9375 98.9261C95.642 98.9261 95.3883 98.8277 95.1761 98.6307C94.9678 98.4299 94.8636 98.1913 94.8636 97.9148C94.8636 97.6345 94.9678 97.3958 95.1761 97.1989C95.3883 96.9981 95.642 96.8977 95.9375 96.8977C96.233 96.8977 96.4848 96.9981 96.6932 97.1989C96.9053 97.3958 97.0114 97.6345 97.0114 97.9148C97.0114 98.1913 96.9053 98.4299 96.6932 98.6307C96.4848 98.8277 96.233 98.9261 95.9375 98.9261ZM99.0639 109V100.273H100.695V101.693H100.803C100.984 101.212 101.282 100.837 101.695 100.568C102.107 100.295 102.602 100.159 103.178 100.159C103.761 100.159 104.25 100.295 104.643 100.568C105.041 100.841 105.335 101.216 105.524 101.693H105.615C105.823 101.227 106.155 100.856 106.609 100.58C107.064 100.299 107.606 100.159 108.234 100.159C109.026 100.159 109.672 100.407 110.172 100.903C110.676 101.4 110.928 102.148 110.928 103.148V109H109.229V103.307C109.229 102.716 109.068 102.288 108.746 102.023C108.424 101.758 108.039 101.625 107.592 101.625C107.039 101.625 106.609 101.795 106.303 102.136C105.996 102.473 105.842 102.907 105.842 103.438V109H104.149V103.199C104.149 102.725 104.001 102.345 103.706 102.057C103.411 101.769 103.026 101.625 102.553 101.625C102.231 101.625 101.933 101.71 101.661 101.881C101.392 102.047 101.174 102.28 101.007 102.58C100.844 102.879 100.763 103.225 100.763 103.619V109H99.0639ZM116.966 109.176C116.106 109.176 115.366 108.992 114.744 108.625C114.127 108.254 113.65 107.733 113.312 107.062C112.979 106.388 112.812 105.598 112.812 104.693C112.812 103.799 112.979 103.011 113.312 102.33C113.65 101.648 114.119 101.116 114.722 100.733C115.328 100.35 116.036 100.159 116.847 100.159C117.339 100.159 117.816 100.241 118.278 100.403C118.741 100.566 119.155 100.822 119.523 101.17C119.89 101.519 120.18 101.972 120.392 102.528C120.604 103.081 120.71 103.754 120.71 104.545V105.148H113.773V103.875H119.045C119.045 103.428 118.955 103.032 118.773 102.688C118.591 102.339 118.335 102.064 118.006 101.864C117.68 101.663 117.297 101.562 116.858 101.562C116.381 101.562 115.964 101.68 115.608 101.915C115.256 102.146 114.983 102.449 114.79 102.824C114.6 103.195 114.506 103.598 114.506 104.034V105.028C114.506 105.612 114.608 106.108 114.812 106.517C115.021 106.926 115.311 107.239 115.682 107.455C116.053 107.667 116.487 107.773 116.983 107.773C117.305 107.773 117.598 107.727 117.864 107.636C118.129 107.542 118.358 107.402 118.551 107.216C118.744 107.03 118.892 106.801 118.994 106.528L120.602 106.818C120.473 107.292 120.242 107.706 119.909 108.062C119.58 108.415 119.165 108.689 118.665 108.886C118.169 109.08 117.602 109.176 116.966 109.176ZM126.392 98.875V97.3636H135.398V98.875H131.767V109H130.017V98.875H126.392ZM136.345 109V100.273H137.987V101.659H138.078C138.237 101.189 138.518 100.82 138.919 100.551C139.324 100.278 139.783 100.142 140.294 100.142C140.4 100.142 140.525 100.146 140.669 100.153C140.817 100.161 140.932 100.17 141.016 100.182V101.807C140.947 101.788 140.826 101.767 140.652 101.744C140.478 101.718 140.304 101.705 140.129 101.705C139.728 101.705 139.37 101.79 139.055 101.96C138.745 102.127 138.499 102.36 138.317 102.659C138.135 102.955 138.044 103.292 138.044 103.67V109H136.345ZM144.947 109.193C144.394 109.193 143.894 109.091 143.447 108.886C143 108.678 142.646 108.377 142.385 107.983C142.127 107.589 141.999 107.106 141.999 106.534C141.999 106.042 142.093 105.636 142.283 105.318C142.472 105 142.728 104.748 143.05 104.562C143.372 104.377 143.732 104.237 144.129 104.142C144.527 104.047 144.932 103.975 145.345 103.926C145.868 103.866 146.292 103.816 146.618 103.778C146.944 103.737 147.18 103.67 147.328 103.58C147.476 103.489 147.55 103.341 147.55 103.136V103.097C147.55 102.6 147.41 102.216 147.129 101.943C146.853 101.67 146.44 101.534 145.891 101.534C145.319 101.534 144.868 101.661 144.538 101.915C144.213 102.165 143.987 102.443 143.862 102.75L142.266 102.386C142.455 101.856 142.732 101.428 143.095 101.102C143.463 100.773 143.885 100.534 144.362 100.386C144.839 100.235 145.341 100.159 145.868 100.159C146.216 100.159 146.586 100.201 146.976 100.284C147.37 100.364 147.737 100.511 148.078 100.727C148.423 100.943 148.705 101.252 148.925 101.653C149.144 102.051 149.254 102.568 149.254 103.205V109H147.595V107.807H147.527C147.417 108.027 147.252 108.242 147.033 108.455C146.813 108.667 146.531 108.843 146.186 108.983C145.841 109.123 145.429 109.193 144.947 109.193ZM145.317 107.83C145.786 107.83 146.188 107.737 146.521 107.551C146.858 107.366 147.114 107.123 147.288 106.824C147.466 106.521 147.555 106.197 147.555 105.852V104.727C147.495 104.788 147.377 104.845 147.203 104.898C147.033 104.947 146.838 104.991 146.618 105.028C146.398 105.062 146.184 105.095 145.976 105.125C145.768 105.152 145.593 105.174 145.453 105.193C145.124 105.235 144.822 105.305 144.55 105.403C144.281 105.502 144.065 105.644 143.902 105.83C143.743 106.011 143.663 106.254 143.663 106.557C143.663 106.977 143.819 107.295 144.129 107.511C144.44 107.723 144.836 107.83 145.317 107.83ZM155.193 109.176C154.348 109.176 153.621 108.985 153.011 108.602C152.405 108.216 151.939 107.684 151.614 107.006C151.288 106.328 151.125 105.551 151.125 104.676C151.125 103.79 151.292 103.008 151.625 102.33C151.958 101.648 152.428 101.116 153.034 100.733C153.64 100.35 154.354 100.159 155.176 100.159C155.839 100.159 156.43 100.282 156.949 100.528C157.468 100.771 157.886 101.112 158.205 101.551C158.527 101.991 158.718 102.504 158.778 103.091H157.125C157.034 102.682 156.826 102.33 156.5 102.034C156.178 101.739 155.746 101.591 155.205 101.591C154.731 101.591 154.316 101.716 153.96 101.966C153.608 102.212 153.333 102.564 153.136 103.023C152.939 103.477 152.841 104.015 152.841 104.636C152.841 105.273 152.938 105.822 153.131 106.284C153.324 106.746 153.597 107.104 153.949 107.358C154.305 107.612 154.723 107.739 155.205 107.739C155.527 107.739 155.818 107.68 156.08 107.562C156.345 107.441 156.566 107.269 156.744 107.045C156.926 106.822 157.053 106.553 157.125 106.239H158.778C158.718 106.803 158.534 107.307 158.227 107.75C157.92 108.193 157.509 108.542 156.994 108.795C156.483 109.049 155.883 109.176 155.193 109.176ZM162.158 106.04L162.146 103.966H162.442L165.919 100.273H167.953L163.987 104.477H163.72L162.158 106.04ZM160.595 109V97.3636H162.294V109H160.595ZM166.107 109L162.982 104.852L164.152 103.665L168.192 109H166.107ZM169.501 109V100.273H171.2V109H169.501ZM170.359 98.9261C170.064 98.9261 169.81 98.8277 169.598 98.6307C169.39 98.4299 169.286 98.1913 169.286 97.9148C169.286 97.6345 169.39 97.3958 169.598 97.1989C169.81 96.9981 170.064 96.8977 170.359 96.8977C170.655 96.8977 170.907 96.9981 171.115 97.1989C171.327 97.3958 171.433 97.6345 171.433 97.9148C171.433 98.1913 171.327 98.4299 171.115 98.6307C170.907 98.8277 170.655 98.9261 170.359 98.9261ZM175.185 103.818V109H173.486V100.273H175.116V101.693H175.224C175.425 101.231 175.74 100.86 176.168 100.58C176.599 100.299 177.143 100.159 177.798 100.159C178.393 100.159 178.914 100.284 179.361 100.534C179.808 100.78 180.154 101.148 180.401 101.636C180.647 102.125 180.77 102.729 180.77 103.449V109H179.071V103.653C179.071 103.021 178.906 102.527 178.577 102.17C178.247 101.811 177.795 101.631 177.219 101.631C176.825 101.631 176.474 101.716 176.168 101.886C175.865 102.057 175.624 102.307 175.446 102.636C175.272 102.962 175.185 103.356 175.185 103.818ZM186.707 112.455C186.014 112.455 185.418 112.364 184.918 112.182C184.421 112 184.016 111.759 183.702 111.46C183.387 111.161 183.152 110.833 182.997 110.477L184.457 109.875C184.56 110.042 184.696 110.218 184.866 110.403C185.041 110.593 185.276 110.754 185.571 110.886C185.87 111.019 186.255 111.085 186.724 111.085C187.368 111.085 187.901 110.928 188.321 110.614C188.741 110.303 188.952 109.807 188.952 109.125V107.409H188.844C188.741 107.595 188.594 107.801 188.401 108.028C188.211 108.256 187.95 108.453 187.616 108.619C187.283 108.786 186.849 108.869 186.315 108.869C185.626 108.869 185.005 108.708 184.452 108.386C183.902 108.061 183.467 107.581 183.145 106.949C182.827 106.312 182.668 105.53 182.668 104.602C182.668 103.674 182.825 102.879 183.139 102.216C183.457 101.553 183.893 101.045 184.446 100.693C184.999 100.337 185.626 100.159 186.327 100.159C186.868 100.159 187.306 100.25 187.639 100.432C187.973 100.61 188.232 100.818 188.418 101.057C188.607 101.295 188.753 101.506 188.855 101.688H188.98V100.273H190.645V109.193C190.645 109.943 190.471 110.559 190.122 111.04C189.774 111.521 189.302 111.877 188.707 112.108C188.116 112.339 187.45 112.455 186.707 112.455ZM186.69 107.46C187.179 107.46 187.592 107.347 187.929 107.119C188.27 106.888 188.527 106.559 188.702 106.131C188.88 105.699 188.969 105.182 188.969 104.58C188.969 103.992 188.882 103.475 188.707 103.028C188.533 102.581 188.277 102.233 187.94 101.983C187.603 101.729 187.187 101.602 186.69 101.602C186.179 101.602 185.753 101.735 185.412 102C185.071 102.261 184.813 102.617 184.639 103.068C184.469 103.519 184.384 104.023 184.384 104.58C184.384 105.152 184.471 105.653 184.645 106.085C184.819 106.517 185.077 106.854 185.418 107.097C185.762 107.339 186.187 107.46 186.69 107.46Z" fill="#04542C"/>
</svg>
