<svg width="200" height="119" viewBox="0 0 200 119" fill="none" xmlns="http://www.w3.org/2000/svg">
<path d="M114.672 57.0859C114.593 57.3506 114.315 57.5016 114.05 57.423L109.736 56.1432C109.471 56.0647 109.32 55.7864 109.399 55.5217C109.478 55.2569 109.756 55.106 110.021 55.1845L113.855 56.3221L114.993 52.4873C115.072 52.2226 115.35 52.0716 115.615 52.1502C115.879 52.2287 116.03 52.507 115.952 52.7717L114.672 57.0859ZM113.753 57.1821C113.335 56.412 112.911 55.6581 112.481 54.9202L113.344 54.4164C113.78 55.1633 114.209 55.9262 114.632 56.7053L113.753 57.1821ZM109.753 50.5738C108.773 49.1234 107.767 47.7442 106.737 46.4334L107.524 45.8156C108.569 47.1456 109.589 48.5442 110.581 50.0141L109.753 50.5738ZM103.411 42.5206C102.226 41.2332 101.015 40.0247 99.7811 38.8916L100.458 38.1551C101.712 39.3073 102.943 40.5355 104.147 41.8433L103.411 42.5206ZM95.8657 35.598C94.4853 34.5375 93.0824 33.5603 91.6614 32.6617L92.1959 31.8165C93.6424 32.7312 95.0702 33.7258 96.4749 34.805L95.8657 35.598ZM87.212 30.1277C85.6703 29.3417 84.1127 28.6385 82.5444 28.0127L82.915 27.0839C84.5112 27.7208 86.0967 28.4366 87.6662 29.2368L87.212 30.1277ZM77.7065 26.3306C76.053 25.837 74.3932 25.4214 72.7327 25.0777L72.9353 24.0985C74.623 24.4478 76.3107 24.8703 77.9926 25.3724L77.7065 26.3306ZM67.6742 24.2461C65.9613 24.0351 64.2539 23.8943 62.5583 23.8168L62.604 22.8178C64.3242 22.8964 66.0572 23.0393 67.7965 23.2536L67.6742 24.2461ZM57.4231 23.7697C55.6928 23.8158 53.9824 23.9227 52.2989 24.0827L52.2042 23.0872C53.9095 22.9251 55.6426 22.8168 57.3965 22.7701L57.4231 23.7697ZM47.2014 24.736C45.4764 25.0139 43.7904 25.3429 42.1521 25.7137L41.9314 24.7384C43.5895 24.3631 45.296 24.0301 47.0424 23.7488L47.2014 24.736ZM37.1748 27.0043C35.4723 27.5031 33.8403 28.0414 32.2909 28.6062L31.9484 27.6667C33.5179 27.0945 35.1704 26.5495 36.8937 26.0447L37.1748 27.0043ZM27.5336 30.5308C26.7288 30.8914 25.9578 31.2561 25.2233 31.6224L24.7771 30.7275C25.5243 30.3549 26.3078 29.9842 27.1248 29.6182L27.5336 30.5308Z" fill="black"/>
<rect x="0.5" y="69.5" width="199" height="49" rx="9.5" fill="white" stroke="black"/>
<path d="M23.3864 94.1818C23.3864 95.4242 23.1591 96.4924 22.7045 97.3864C22.25 98.2765 21.6269 98.9621 20.8352 99.4432C20.0473 99.9205 19.1515 100.159 18.1477 100.159C17.1402 100.159 16.2405 99.9205 15.4489 99.4432C14.661 98.9621 14.0398 98.2746 13.5852 97.3807C13.1307 96.4867 12.9034 95.4205 12.9034 94.1818C12.9034 92.9394 13.1307 91.8731 13.5852 90.983C14.0398 90.089 14.661 89.4034 15.4489 88.9261C16.2405 88.4451 17.1402 88.2045 18.1477 88.2045C19.1515 88.2045 20.0473 88.4451 20.8352 88.9261C21.6269 89.4034 22.25 90.089 22.7045 90.983C23.1591 91.8731 23.3864 92.9394 23.3864 94.1818ZM21.6477 94.1818C21.6477 93.2348 21.4943 92.4375 21.1875 91.7898C20.8845 91.1383 20.4678 90.6458 19.9375 90.3125C19.411 89.9754 18.8144 89.8068 18.1477 89.8068C17.4773 89.8068 16.8788 89.9754 16.3523 90.3125C15.8258 90.6458 15.4091 91.1383 15.1023 91.7898C14.7992 92.4375 14.6477 93.2348 14.6477 94.1818C14.6477 95.1288 14.7992 95.928 15.1023 96.5795C15.4091 97.2273 15.8258 97.7197 16.3523 98.0568C16.8788 98.3902 17.4773 98.5568 18.1477 98.5568C18.8144 98.5568 19.411 98.3902 19.9375 98.0568C20.4678 97.7197 20.8845 97.2273 21.1875 96.5795C21.4943 95.928 21.6477 95.1288 21.6477 94.1818ZM30.9673 96.3807V91.2727H32.6719V100H31.0014V98.4886H30.9105C30.7098 98.9545 30.3878 99.3428 29.9446 99.6534C29.5052 99.9602 28.9579 100.114 28.3026 100.114C27.742 100.114 27.2457 99.9905 26.8139 99.7443C26.3859 99.4943 26.0488 99.125 25.8026 98.6364C25.5601 98.1477 25.4389 97.5436 25.4389 96.8239V91.2727H27.1378V96.6193C27.1378 97.214 27.3026 97.6875 27.6321 98.0398C27.9616 98.392 28.3897 98.5682 28.9162 98.5682C29.2344 98.5682 29.5507 98.4886 29.8651 98.3295C30.1832 98.1705 30.4465 97.9299 30.6548 97.608C30.867 97.286 30.9711 96.8769 30.9673 96.3807ZM39.0284 91.2727V92.6364H34.2614V91.2727H39.0284ZM35.5398 89.1818H37.2386V97.4375C37.2386 97.767 37.2879 98.0152 37.3864 98.1818C37.4848 98.3447 37.6117 98.4564 37.767 98.517C37.9261 98.5739 38.0985 98.6023 38.2841 98.6023C38.4205 98.6023 38.5398 98.5928 38.642 98.5739C38.7443 98.5549 38.8239 98.5398 38.8807 98.5284L39.1875 99.9318C39.089 99.9697 38.9489 100.008 38.767 100.045C38.5852 100.087 38.358 100.11 38.0852 100.114C37.6383 100.121 37.2216 100.042 36.8352 99.875C36.4489 99.7083 36.1364 99.4508 35.8977 99.1023C35.6591 98.7538 35.5398 98.3163 35.5398 97.7898V89.1818ZM44.081 100.17C43.3764 100.17 42.7476 99.9905 42.1946 99.6307C41.6454 99.267 41.2135 98.75 40.8991 98.0795C40.5885 97.4053 40.4332 96.5966 40.4332 95.6534C40.4332 94.7102 40.5904 93.9034 40.9048 93.233C41.223 92.5625 41.6586 92.0492 42.2116 91.6932C42.7647 91.3371 43.3916 91.1591 44.0923 91.1591C44.634 91.1591 45.0696 91.25 45.3991 91.4318C45.7325 91.6098 45.9901 91.8182 46.1719 92.0568C46.3575 92.2955 46.5014 92.5057 46.6037 92.6875H46.706V88.3636H48.4048V100H46.7457V98.642H46.6037C46.5014 98.8277 46.3537 99.0398 46.1605 99.2784C45.9711 99.517 45.7098 99.7254 45.3764 99.9034C45.0431 100.081 44.6113 100.17 44.081 100.17ZM44.456 98.7216C44.9446 98.7216 45.3575 98.5928 45.6946 98.3352C46.0355 98.0739 46.2931 97.7121 46.4673 97.25C46.6454 96.7879 46.7344 96.25 46.7344 95.6364C46.7344 95.0303 46.6473 94.5 46.473 94.0455C46.2988 93.5909 46.0431 93.2367 45.706 92.983C45.3688 92.7292 44.9522 92.6023 44.456 92.6023C43.9446 92.6023 43.5185 92.7348 43.1776 93C42.8366 93.2652 42.5791 93.6269 42.4048 94.0852C42.2344 94.5436 42.1491 95.0606 42.1491 95.6364C42.1491 96.2197 42.2363 96.7443 42.4105 97.2102C42.5848 97.6761 42.8423 98.0455 43.1832 98.3182C43.5279 98.5871 43.9522 98.7216 44.456 98.7216ZM54.5057 100.176C53.6875 100.176 52.9735 99.9886 52.3636 99.6136C51.7538 99.2386 51.2803 98.714 50.9432 98.0398C50.6061 97.3655 50.4375 96.5777 50.4375 95.6761C50.4375 94.7708 50.6061 93.9792 50.9432 93.3011C51.2803 92.6231 51.7538 92.0966 52.3636 91.7216C52.9735 91.3466 53.6875 91.1591 54.5057 91.1591C55.3239 91.1591 56.0379 91.3466 56.6477 91.7216C57.2576 92.0966 57.7311 92.6231 58.0682 93.3011C58.4053 93.9792 58.5739 94.7708 58.5739 95.6761C58.5739 96.5777 58.4053 97.3655 58.0682 98.0398C57.7311 98.714 57.2576 99.2386 56.6477 99.6136C56.0379 99.9886 55.3239 100.176 54.5057 100.176ZM54.5114 98.75C55.0417 98.75 55.4811 98.6098 55.8295 98.3295C56.178 98.0492 56.4356 97.6761 56.6023 97.2102C56.7727 96.7443 56.858 96.2311 56.858 95.6705C56.858 95.1136 56.7727 94.6023 56.6023 94.1364C56.4356 93.6667 56.178 93.2898 55.8295 93.0057C55.4811 92.7216 55.0417 92.5795 54.5114 92.5795C53.9773 92.5795 53.5341 92.7216 53.1818 93.0057C52.8333 93.2898 52.5739 93.6667 52.4034 94.1364C52.2367 94.6023 52.1534 95.1136 52.1534 95.6705C52.1534 96.2311 52.2367 96.7443 52.4034 97.2102C52.5739 97.6761 52.8333 98.0492 53.1818 98.3295C53.5341 98.6098 53.9773 98.75 54.5114 98.75ZM64.1463 100.176C63.3281 100.176 62.6141 99.9886 62.0043 99.6136C61.3944 99.2386 60.9209 98.714 60.5838 98.0398C60.2467 97.3655 60.0781 96.5777 60.0781 95.6761C60.0781 94.7708 60.2467 93.9792 60.5838 93.3011C60.9209 92.6231 61.3944 92.0966 62.0043 91.7216C62.6141 91.3466 63.3281 91.1591 64.1463 91.1591C64.9645 91.1591 65.6785 91.3466 66.2884 91.7216C66.8982 92.0966 67.3717 92.6231 67.7088 93.3011C68.0459 93.9792 68.2145 94.7708 68.2145 95.6761C68.2145 96.5777 68.0459 97.3655 67.7088 98.0398C67.3717 98.714 66.8982 99.2386 66.2884 99.6136C65.6785 99.9886 64.9645 100.176 64.1463 100.176ZM64.152 98.75C64.6823 98.75 65.1217 98.6098 65.4702 98.3295C65.8187 98.0492 66.0762 97.6761 66.2429 97.2102C66.4134 96.7443 66.4986 96.2311 66.4986 95.6705C66.4986 95.1136 66.4134 94.6023 66.2429 94.1364C66.0762 93.6667 65.8187 93.2898 65.4702 93.0057C65.1217 92.7216 64.6823 92.5795 64.152 92.5795C63.6179 92.5795 63.1747 92.7216 62.8224 93.0057C62.474 93.2898 62.2145 93.6667 62.044 94.1364C61.8774 94.6023 61.794 95.1136 61.794 95.6705C61.794 96.2311 61.8774 96.7443 62.044 97.2102C62.2145 97.6761 62.474 98.0492 62.8224 98.3295C63.1747 98.6098 63.6179 98.75 64.152 98.75ZM70.1108 100V91.2727H71.7528V92.6591H71.8438C72.0028 92.1894 72.2831 91.8201 72.6847 91.5511C73.09 91.2784 73.5483 91.142 74.0597 91.142C74.1657 91.142 74.2907 91.1458 74.4347 91.1534C74.5824 91.161 74.6979 91.1705 74.7812 91.1818V92.8068C74.7131 92.7879 74.5919 92.767 74.4176 92.7443C74.2434 92.7178 74.0691 92.7045 73.8949 92.7045C73.4934 92.7045 73.1354 92.7898 72.821 92.9602C72.5104 93.1269 72.2642 93.3598 72.0824 93.6591C71.9006 93.9545 71.8097 94.2917 71.8097 94.6705V100H70.1108ZM80.0483 89.875V88.3636H89.054V89.875H85.4233V100H83.6733V89.875H80.0483ZM90.9077 100V91.2727H92.6065V100H90.9077ZM91.7656 89.9261C91.4702 89.9261 91.2164 89.8277 91.0043 89.6307C90.7959 89.4299 90.6918 89.1913 90.6918 88.9148C90.6918 88.6345 90.7959 88.3958 91.0043 88.1989C91.2164 87.9981 91.4702 87.8977 91.7656 87.8977C92.0611 87.8977 92.313 87.9981 92.5213 88.1989C92.7334 88.3958 92.8395 88.6345 92.8395 88.9148C92.8395 89.1913 92.7334 89.4299 92.5213 89.6307C92.313 89.8277 92.0611 89.9261 91.7656 89.9261ZM94.892 100V91.2727H96.5227V92.6932H96.6307C96.8125 92.2121 97.1098 91.8371 97.5227 91.5682C97.9356 91.2955 98.4299 91.1591 99.0057 91.1591C99.589 91.1591 100.078 91.2955 100.472 91.5682C100.869 91.8409 101.163 92.2159 101.352 92.6932H101.443C101.652 92.2273 101.983 91.8561 102.438 91.5795C102.892 91.2992 103.434 91.1591 104.062 91.1591C104.854 91.1591 105.5 91.4072 106 91.9034C106.504 92.3996 106.756 93.1477 106.756 94.1477V100H105.057V94.3068C105.057 93.7159 104.896 93.2879 104.574 93.0227C104.252 92.7576 103.867 92.625 103.42 92.625C102.867 92.625 102.438 92.7955 102.131 93.1364C101.824 93.4735 101.67 93.9072 101.67 94.4375V100H99.9773V94.1989C99.9773 93.7254 99.8295 93.3447 99.5341 93.0568C99.2386 92.7689 98.8542 92.625 98.3807 92.625C98.0587 92.625 97.7614 92.7102 97.4886 92.8807C97.2197 93.0473 97.0019 93.2803 96.8352 93.5795C96.6723 93.8788 96.5909 94.2254 96.5909 94.6193V100H94.892ZM112.794 100.176C111.934 100.176 111.194 99.9924 110.572 99.625C109.955 99.2538 109.478 98.733 109.141 98.0625C108.807 97.3883 108.641 96.5985 108.641 95.6932C108.641 94.7992 108.807 94.0114 109.141 93.3295C109.478 92.6477 109.947 92.1155 110.55 91.733C111.156 91.3504 111.864 91.1591 112.675 91.1591C113.167 91.1591 113.644 91.2405 114.107 91.4034C114.569 91.5663 114.983 91.822 115.351 92.1705C115.718 92.5189 116.008 92.9716 116.22 93.5284C116.432 94.0814 116.538 94.7538 116.538 95.5455V96.1477H109.601V94.875H114.874C114.874 94.428 114.783 94.0322 114.601 93.6875C114.419 93.339 114.163 93.0644 113.834 92.8636C113.508 92.6629 113.125 92.5625 112.686 92.5625C112.209 92.5625 111.792 92.6799 111.436 92.9148C111.084 93.1458 110.811 93.4489 110.618 93.8239C110.429 94.1951 110.334 94.5985 110.334 95.0341V96.0284C110.334 96.6117 110.436 97.108 110.641 97.517C110.849 97.9261 111.139 98.2386 111.51 98.4545C111.881 98.6667 112.315 98.7727 112.811 98.7727C113.133 98.7727 113.427 98.7273 113.692 98.6364C113.957 98.5417 114.186 98.4015 114.379 98.2159C114.572 98.0303 114.72 97.8011 114.822 97.5284L116.43 97.8182C116.302 98.2917 116.071 98.7064 115.737 99.0625C115.408 99.4148 114.993 99.6894 114.493 99.8864C113.997 100.08 113.43 100.176 112.794 100.176ZM122.22 89.875V88.3636H131.226V89.875H127.595V100H125.845V89.875H122.22ZM132.173 100V91.2727H133.815V92.6591H133.906C134.065 92.1894 134.346 91.8201 134.747 91.5511C135.152 91.2784 135.611 91.142 136.122 91.142C136.228 91.142 136.353 91.1458 136.497 91.1534C136.645 91.161 136.76 91.1705 136.844 91.1818V92.8068C136.776 92.7879 136.654 92.767 136.48 92.7443C136.306 92.7178 136.132 92.7045 135.957 92.7045C135.556 92.7045 135.198 92.7898 134.884 92.9602C134.573 93.1269 134.327 93.3598 134.145 93.6591C133.963 93.9545 133.872 94.2917 133.872 94.6705V100H132.173ZM140.776 100.193C140.223 100.193 139.723 100.091 139.276 99.8864C138.829 99.678 138.474 99.3769 138.213 98.983C137.955 98.589 137.827 98.1061 137.827 97.5341C137.827 97.0417 137.921 96.6364 138.111 96.3182C138.3 96 138.556 95.7481 138.878 95.5625C139.2 95.3769 139.56 95.2367 139.957 95.142C140.355 95.0473 140.76 94.9754 141.173 94.9261C141.696 94.8655 142.12 94.8163 142.446 94.7784C142.772 94.7367 143.009 94.6705 143.156 94.5795C143.304 94.4886 143.378 94.3409 143.378 94.1364V94.0966C143.378 93.6004 143.238 93.2159 142.957 92.9432C142.681 92.6705 142.268 92.5341 141.719 92.5341C141.147 92.5341 140.696 92.661 140.366 92.9148C140.041 93.1648 139.815 93.4432 139.69 93.75L138.094 93.3864C138.283 92.8561 138.56 92.428 138.923 92.1023C139.291 91.7727 139.713 91.5341 140.19 91.3864C140.668 91.2348 141.17 91.1591 141.696 91.1591C142.045 91.1591 142.414 91.2008 142.804 91.2841C143.198 91.3636 143.565 91.5114 143.906 91.7273C144.251 91.9432 144.533 92.2519 144.753 92.6534C144.973 93.0511 145.082 93.5682 145.082 94.2045V100H143.423V98.8068H143.355C143.245 99.0265 143.08 99.2424 142.861 99.4545C142.641 99.6667 142.359 99.8428 142.014 99.983C141.67 100.123 141.257 100.193 140.776 100.193ZM141.145 98.8295C141.615 98.8295 142.016 98.7367 142.349 98.5511C142.687 98.3655 142.942 98.1231 143.116 97.8239C143.295 97.5208 143.384 97.197 143.384 96.8523V95.7273C143.323 95.7879 143.205 95.8447 143.031 95.8977C142.861 95.947 142.666 95.9905 142.446 96.0284C142.226 96.0625 142.012 96.0947 141.804 96.125C141.596 96.1515 141.421 96.1742 141.281 96.1932C140.952 96.2348 140.651 96.3049 140.378 96.4034C140.109 96.5019 139.893 96.6439 139.73 96.8295C139.571 97.0114 139.491 97.2538 139.491 97.5568C139.491 97.9773 139.647 98.2955 139.957 98.5114C140.268 98.7235 140.664 98.8295 141.145 98.8295ZM151.021 100.176C150.177 100.176 149.449 99.9848 148.839 99.6023C148.233 99.2159 147.768 98.6837 147.442 98.0057C147.116 97.3277 146.953 96.5511 146.953 95.6761C146.953 94.7898 147.12 94.0076 147.453 93.3295C147.786 92.6477 148.256 92.1155 148.862 91.733C149.468 91.3504 150.182 91.1591 151.004 91.1591C151.667 91.1591 152.258 91.2822 152.777 91.5284C153.296 91.7708 153.714 92.1117 154.033 92.5511C154.355 92.9905 154.546 93.5038 154.607 94.0909H152.953C152.862 93.6818 152.654 93.3295 152.328 93.0341C152.006 92.7386 151.574 92.5909 151.033 92.5909C150.559 92.5909 150.144 92.7159 149.788 92.9659C149.436 93.2121 149.161 93.5644 148.964 94.0227C148.768 94.4773 148.669 95.0152 148.669 95.6364C148.669 96.2727 148.766 96.822 148.959 97.2841C149.152 97.7462 149.425 98.1042 149.777 98.358C150.133 98.6117 150.552 98.7386 151.033 98.7386C151.355 98.7386 151.646 98.6799 151.908 98.5625C152.173 98.4413 152.394 98.2689 152.572 98.0455C152.754 97.822 152.881 97.553 152.953 97.2386H154.607C154.546 97.803 154.362 98.3068 154.055 98.75C153.749 99.1932 153.338 99.5417 152.822 99.7955C152.311 100.049 151.711 100.176 151.021 100.176ZM157.986 97.0398L157.974 94.9659H158.27L161.747 91.2727H163.781L159.815 95.4773H159.548L157.986 97.0398ZM156.423 100V88.3636H158.122V100H156.423ZM161.935 100L158.81 95.8523L159.98 94.6648L164.02 100H161.935ZM165.33 100V91.2727H167.028V100H165.33ZM166.188 89.9261C165.892 89.9261 165.638 89.8277 165.426 89.6307C165.218 89.4299 165.114 89.1913 165.114 88.9148C165.114 88.6345 165.218 88.3958 165.426 88.1989C165.638 87.9981 165.892 87.8977 166.188 87.8977C166.483 87.8977 166.735 87.9981 166.943 88.1989C167.155 88.3958 167.261 88.6345 167.261 88.9148C167.261 89.1913 167.155 89.4299 166.943 89.6307C166.735 89.8277 166.483 89.9261 166.188 89.9261ZM171.013 94.8182V100H169.314V91.2727H170.945V92.6932H171.053C171.253 92.2311 171.568 91.8598 171.996 91.5795C172.428 91.2992 172.971 91.1591 173.626 91.1591C174.221 91.1591 174.742 91.2841 175.189 91.5341C175.636 91.7803 175.982 92.1477 176.229 92.6364C176.475 93.125 176.598 93.7292 176.598 94.4489V100H174.899V94.6534C174.899 94.0208 174.734 93.5265 174.405 93.1705C174.075 92.8106 173.623 92.6307 173.047 92.6307C172.653 92.6307 172.303 92.7159 171.996 92.8864C171.693 93.0568 171.452 93.3068 171.274 93.6364C171.1 93.9621 171.013 94.3561 171.013 94.8182ZM182.536 103.455C181.842 103.455 181.246 103.364 180.746 103.182C180.25 103 179.844 102.759 179.53 102.46C179.215 102.161 178.981 101.833 178.825 101.477L180.286 100.875C180.388 101.042 180.524 101.218 180.695 101.403C180.869 101.593 181.104 101.754 181.399 101.886C181.698 102.019 182.083 102.085 182.553 102.085C183.196 102.085 183.729 101.928 184.149 101.614C184.57 101.303 184.78 100.807 184.78 100.125V98.4091H184.672C184.57 98.5947 184.422 98.8011 184.229 99.0284C184.039 99.2557 183.778 99.4527 183.445 99.6193C183.111 99.786 182.678 99.8693 182.143 99.8693C181.454 99.8693 180.833 99.7083 180.28 99.3864C179.731 99.0606 179.295 98.5814 178.973 97.9489C178.655 97.3125 178.496 96.5303 178.496 95.6023C178.496 94.6742 178.653 93.8788 178.967 93.2159C179.286 92.553 179.721 92.0455 180.274 91.6932C180.827 91.3371 181.454 91.1591 182.155 91.1591C182.696 91.1591 183.134 91.25 183.467 91.4318C183.801 91.6098 184.06 91.8182 184.246 92.0568C184.435 92.2955 184.581 92.5057 184.683 92.6875H184.808V91.2727H186.473V100.193C186.473 100.943 186.299 101.559 185.95 102.04C185.602 102.521 185.13 102.877 184.536 103.108C183.945 103.339 183.278 103.455 182.536 103.455ZM182.518 98.4602C183.007 98.4602 183.42 98.3466 183.757 98.1193C184.098 97.8883 184.356 97.5587 184.53 97.1307C184.708 96.6989 184.797 96.1818 184.797 95.5795C184.797 94.9924 184.71 94.4754 184.536 94.0284C184.361 93.5814 184.106 93.233 183.768 92.983C183.431 92.7292 183.015 92.6023 182.518 92.6023C182.007 92.6023 181.581 92.7348 181.24 93C180.899 93.2614 180.642 93.6174 180.467 94.0682C180.297 94.5189 180.212 95.0227 180.212 95.5795C180.212 96.1515 180.299 96.6534 180.473 97.0852C180.647 97.517 180.905 97.8542 181.246 98.0966C181.59 98.339 182.015 98.4602 182.518 98.4602Z" fill="#04542C"/>
</svg>
