<svg width="162" height="68" viewBox="0 0 162 68" fill="none" xmlns="http://www.w3.org/2000/svg">
<path id="Vector 8" d="M158.034 1.20892C157.85 0.687975 157.279 0.414328 156.758 0.597716L148.269 3.5862C147.748 3.76959 147.474 4.34056 147.658 4.86151C147.841 5.38246 148.412 5.65611 148.933 5.47272L156.479 2.81629L159.136 10.3624C159.319 10.8833 159.89 11.157 160.411 10.9736C160.932 10.7902 161.205 10.2192 161.022 9.69827L158.034 1.20892ZM156.189 1.10879C155.815 1.8886 155.437 2.65969 155.055 3.42215L156.844 4.31735C157.231 3.54459 157.613 2.76322 157.992 1.97317L156.189 1.10879ZM152.719 7.89398C151.894 9.40765 151.053 10.8847 150.196 12.326L151.915 13.3479C152.785 11.8851 153.639 10.3864 154.475 8.85118L152.719 7.89398ZM147.529 16.6223C146.601 18.0544 145.656 19.4482 144.697 20.8045L146.329 21.9598C147.305 20.5812 148.264 19.1649 149.207 17.7102L147.529 16.6223ZM141.671 24.8923C140.626 26.2432 139.564 27.5533 138.487 28.8235L140.013 30.1167C141.109 28.8237 142.189 27.4906 143.253 26.1165L141.671 24.8923ZM135.14 32.5942C133.975 33.8466 132.795 35.0561 131.601 36.2238L132.998 37.6541C134.216 36.4641 135.418 35.2318 136.605 33.9562L135.14 32.5942ZM127.893 39.675C126.618 40.804 125.329 41.889 124.027 42.9313L125.276 44.4927C126.605 43.4297 127.919 42.3232 129.219 41.1721L127.893 39.675ZM120.007 45.9851C118.629 46.9776 117.238 47.9255 115.836 48.8303L116.92 50.5108C118.351 49.5876 119.77 48.6204 121.175 47.6079L120.007 45.9851ZM111.512 51.4656C110.039 52.3121 108.555 53.1141 107.062 53.8731L107.968 55.6559C109.491 54.8816 111.005 54.0634 112.508 53.1997L111.512 51.4656ZM102.497 56.0495C100.949 56.7402 99.3928 57.3876 97.83 57.9931L98.5526 59.858C100.146 59.2406 101.733 58.5805 103.312 57.876L102.497 56.0495ZM93.0718 59.7037C91.464 60.2379 89.8513 60.7302 88.2355 61.1826L88.7747 63.1085C90.4206 62.6477 92.0637 62.1461 93.7023 61.6017L93.0718 59.7037ZM83.3338 62.4323C81.6811 62.8133 80.027 63.1546 78.3736 63.458L78.7345 65.4252C80.4169 65.1164 82.1004 64.7691 83.7831 64.3812L83.3338 62.4323ZM73.3717 64.263C71.6908 64.4963 70.0125 64.6923 68.339 64.8531L68.5302 66.8439C70.2311 66.6805 71.9372 66.4812 73.6466 66.244L73.3717 64.263ZM63.2849 65.2343C61.5882 65.3279 59.8986 65.3868 58.2184 65.4132L58.2498 67.4129C59.9557 67.3861 61.6715 67.3263 63.395 67.2313L63.2849 65.2343ZM53.1476 65.3957C51.4454 65.3576 49.7554 65.2875 48.0799 65.1879L47.9612 67.1844C49.6607 67.2854 51.3754 67.3565 53.1028 67.3952L53.1476 65.3957ZM43.0222 64.7951C41.3226 64.6324 39.6413 64.4406 37.9808 64.2222L37.72 66.2051C39.4034 66.4265 41.1082 66.621 42.8316 66.786L43.0222 64.7951ZM32.9618 63.4729C31.2715 63.1905 29.6071 62.8819 27.9715 62.5501L27.5738 64.5102C29.2317 64.8465 30.9188 65.1593 32.6322 65.4456L32.9618 63.4729ZM23.0166 61.4551C21.3419 61.0544 19.7036 60.6308 18.1052 60.1881L17.5713 62.1155C19.1922 62.5645 20.8534 62.994 22.5511 63.4002L23.0166 61.4551ZM13.2483 58.7471C11.5967 58.2237 9.99757 57.6819 8.45565 57.1264L7.77775 59.008C9.34434 59.5724 10.9681 60.1225 12.6442 60.6537L13.2483 58.7471ZM3.70834 55.3019C2.91946 54.9786 2.15007 54.6527 1.401 54.3249L0.599295 56.1572C1.36303 56.4914 2.14686 56.8234 2.94998 57.1525L3.70834 55.3019Z" fill="black"/>
</svg>
