<svg width="100" height="100" viewBox="0 0 100 100" fill="none" xmlns="http://www.w3.org/2000/svg">
<g id="8541866_hand_holding_usd_icon 1" clip-path="url(#clip0_600_1038)">
<path id="Vector" d="M47.0593 28.1836L56.4811 30.9766C56.8011 31.0607 57.0874 31.2615 57.2956 31.5476C57.5037 31.8336 57.6221 32.1891 57.6322 32.5586C57.6322 33.457 56.9221 34.1992 56.0488 34.1992H49.8683C49.2023 34.1971 48.5428 34.0512 47.9256 33.7695C47.0159 33.3398 45.9673 33.4375 45.2693 34.1602L41.9707 37.5781C41.8182 37.7284 41.6865 37.9035 41.5801 38.0977C41.4439 38.349 41.3533 38.6281 41.3134 38.919C41.2736 39.2099 41.2853 39.5068 41.3479 39.7925C41.4106 40.0783 41.5228 40.3473 41.6783 40.5841C41.8337 40.8208 42.0293 41.0206 42.2537 41.1719C44.0805 42.4052 46.1258 43.172 48.245 43.418V46.875C48.245 48.5937 49.6044 50 51.2607 50H54.2763C55.9343 50 57.2936 48.5937 57.2936 46.875V43.4375C63.0107 42.7344 67.3353 37.3828 66.5818 31.1328C66.035 26.6406 62.6825 23.0664 58.4985 21.8164L49.0766 19.0234C48.7566 18.9393 48.4703 18.7385 48.2622 18.4524C48.054 18.1664 47.9357 17.8109 47.9256 17.4414C47.9256 16.543 48.6357 15.8008 49.5089 15.8008H55.6895C56.3578 15.8019 57.0198 15.9478 57.6391 16.2305C58.5471 16.6602 59.5975 16.5625 60.2954 15.8398L63.594 12.4219C63.7415 12.2748 63.8685 12.1036 63.9707 11.9141C64.1081 11.6628 64.1998 11.3835 64.2406 11.0921C64.2814 10.8008 64.2706 10.5033 64.2086 10.2167C64.1466 9.93011 64.0347 9.66019 63.8795 9.42253C63.7242 9.18486 63.5287 8.98417 63.3041 8.83203C61.4767 7.5987 59.4308 6.83194 57.311 6.58594V3.125C57.311 1.40625 55.9534 0 54.2954 0H51.2798C49.6218 0 48.2641 1.40625 48.2641 3.125V6.5625C42.5541 7.26562 38.2207 12.6172 38.9742 18.8672C39.5193 23.3594 42.8822 26.9336 47.0593 28.1836ZM98.1374 64.082C96.0888 61.9922 92.8943 62.1289 90.7416 64.082L74.6999 78.5156C72.7307 80.2929 70.28 81.2579 67.7554 81.25H47.2225C46.4857 81.25 45.7792 80.9208 45.2583 80.3347C44.7373 79.7486 44.4447 78.9538 44.4447 78.125C44.4447 77.2962 44.7373 76.5013 45.2583 75.9153C45.7792 75.3292 46.4857 75 47.2225 75H60.8145C63.5749 75 66.1461 72.8711 66.587 69.8047C66.6414 69.4525 66.6681 69.0957 66.6669 68.7383C66.6641 67.0827 66.0776 65.496 65.036 64.3264C63.9945 63.1569 62.583 62.5 61.1113 62.5H33.3336C28.6489 62.5014 24.1069 64.3143 20.469 67.6348L12.3961 75H2.77802C2.04131 75 1.33477 75.3292 0.813836 75.9153C0.292902 76.5013 0.000244141 77.2962 0.000244141 78.125L0.000244141 96.875C0.000244141 97.7038 0.292902 98.4986 0.813836 99.0847C1.33477 99.6708 2.04131 100 2.77802 100H64.7172C67.2409 100.002 69.6901 99.0379 71.6617 97.2656L97.9169 73.6328C98.5485 73.0645 99.0621 72.3479 99.422 71.5332C99.7819 70.7184 99.9793 69.825 100 68.9155C100.022 68.006 99.866 67.1022 99.5445 66.2674C99.223 65.4325 98.7434 64.6867 98.1391 64.082H98.1374Z" fill="#04542C"/>
</g>
<defs>
<clipPath id="clip0_600_1038">
<rect width="100" height="100" fill="white" transform="translate(0.000244141)"/>
</clipPath>
</defs>
</svg>
