<svg width="101" height="100" viewBox="0 0 101 100" fill="none" xmlns="http://www.w3.org/2000/svg">
<g id="352032_attach_file_icon 1" clip-path="url(#clip0_600_1030)">
<path id="Vector" d="M68.9674 25V72.9166C68.9674 82.1249 61.509 89.5833 52.3007 89.5833C43.0924 89.5833 35.634 82.1249 35.634 72.9166V20.8333C35.634 15.0833 40.3007 10.4166 46.0507 10.4166C51.8007 10.4166 56.4674 15.0833 56.4674 20.8333V64.5833C56.4674 66.875 54.6132 68.7499 52.3007 68.7499C49.9882 68.7499 48.134 66.875 48.134 64.5833V25H41.884V64.5833C41.884 70.3333 46.5507 74.9999 52.3007 74.9999C58.0507 74.9999 62.7174 70.3333 62.7174 64.5833V20.8333C62.7174 11.625 55.259 4.16663 46.0507 4.16663C36.8424 4.16663 29.384 11.625 29.384 20.8333V72.9166C29.384 85.5833 39.6549 95.8333 52.3007 95.8333C64.9465 95.8333 75.2174 85.5833 75.2174 72.9166V25H68.9674Z" fill="#04542C"/>
</g>
<defs>
<clipPath id="clip0_600_1030">
<rect width="100" height="100" fill="white" transform="translate(0.217285)"/>
</clipPath>
</defs>
</svg>
