<svg width="100" height="100" viewBox="0 0 100 100" fill="none" xmlns="http://www.w3.org/2000/svg">
<g id="9004782_lock_security_secure_protect_icon 1">
<path id="Vector" d="M50 0C43.3696 0 37.0107 2.63392 32.3223 7.32233C27.6339 12.0107 25 18.3696 25 25V29.1667H33.3333V25C33.3333 20.5797 35.0893 16.3405 38.2149 13.2149C41.3405 10.0893 45.5797 8.33333 50 8.33333C54.4203 8.33333 58.6595 10.0893 61.7851 13.2149C64.9107 16.3405 66.6667 20.5797 66.6667 25V29.1667H75V25C75 18.3696 72.3661 12.0107 67.6777 7.32233C62.9893 2.63392 56.6304 0 50 0Z" fill="#04542C"/>
<path id="Vector_2" d="M75 37.5H25C21.6848 37.5 18.5054 38.817 16.1612 41.1612C13.817 43.5054 12.5 46.6848 12.5 50V83.3333C12.5 86.6485 13.817 89.828 16.1612 92.1722C18.5054 94.5164 21.6848 95.8333 25 95.8333H75C78.3152 95.8333 81.4946 94.5164 83.8388 92.1722C86.183 89.828 87.5 86.6485 87.5 83.3333V50C87.5 46.6848 86.183 43.5054 83.8388 41.1612C81.4946 38.817 78.3152 37.5 75 37.5ZM54.1667 69.7083V79.1667C54.1667 80.2717 53.7277 81.3315 52.9463 82.1129C52.1649 82.8943 51.1051 83.3333 50 83.3333C48.8949 83.3333 47.8351 82.8943 47.0537 82.1129C46.2723 81.3315 45.8333 80.2717 45.8333 79.1667V69.7083C44.2446 68.7911 43.003 67.3753 42.301 65.6805C41.599 63.9857 41.4758 62.1066 41.9506 60.3346C42.4254 58.5627 43.4716 56.9969 44.927 55.8802C46.3824 54.7634 48.1655 54.1581 50 54.1581C51.8344 54.1581 53.6176 54.7634 55.073 55.8802C56.5284 56.9969 57.5746 58.5627 58.0494 60.3346C58.5242 62.1066 58.401 63.9857 57.699 65.6805C56.997 67.3753 55.7553 68.7911 54.1667 69.7083Z" fill="#04542C"/>
</g>
</svg>
