<svg width="50" height="50" viewBox="0 0 50 50" fill="none" xmlns="http://www.w3.org/2000/svg">
<path d="M34.375 30.1562C34.375 31.4062 34.8438 32.5 35.625 33.2812C35.7813 33.4375 35.9375 33.5937 36.0938 33.5937C36.875 34.2187 37.8125 34.5312 38.9063 34.5312H46.875V41.5625C46.875 45.3125 43.9063 48.2812 40.1563 48.2812H8.75C5 48.2812 2.03125 45.3125 2.03125 41.5625V18.5937C2.03125 18.4375 2.03125 18.125 2.03125 17.9687C2.34375 15.3125 4.21875 12.9688 6.71875 12.1875C7.34375 12.0313 8.125 11.875 8.75 11.875H40.1563C40.7813 11.875 41.5625 12.0313 42.1875 12.1875C44.6875 12.9688 46.7188 15.3125 46.875 17.9687C46.875 18.125 46.875 18.4375 46.875 18.5937V25.625H38.75C37.6563 25.625 36.7188 25.9375 35.9375 26.5625C35 27.5 34.375 28.75 34.375 30.1562Z" fill="#04542C" stroke="#04542C" stroke-miterlimit="10" stroke-linecap="round" stroke-linejoin="round"/>
<path d="M39.8438 34.6875H42.1875V37.0312" stroke="#04542C" stroke-linecap="round" stroke-linejoin="round"/>
<path d="M42.1875 23.4375V25.7812H39.8438" stroke="#04542C" stroke-linecap="round" stroke-linejoin="round"/>
<path d="M35.1563 27.6562C34.6875 28.4375 34.375 29.2187 34.375 30.1562C34.375 31.4062 34.8437 32.5 35.625 33.2812C35.7812 33.4375 35.9375 33.5937 36.0938 33.5937C36.4063 33.9062 36.875 34.0625 37.1875 34.2187" stroke="#04542C" stroke-linecap="round" stroke-linejoin="round" stroke-dasharray="3.42 3.42"/>
<path d="M47.9688 25.7812V34.6875H38.75C37.6562 34.6875 36.7188 34.375 35.9375 33.75C35.7813 33.5937 35.625 33.4375 35.4688 33.4375C34.6875 32.6562 34.2188 31.5625 34.2188 30.3125C34.2188 28.9062 34.8438 27.6563 35.9375 26.7188C36.7188 26.0938 37.6562 25.7812 38.75 25.7812H47.9688Z" stroke="#04542C" stroke-miterlimit="10" stroke-linecap="round" stroke-linejoin="round"/>
<path d="M39.0625 30.1562H43.2813" stroke="#04542C" stroke-miterlimit="10" stroke-linecap="round" stroke-linejoin="round"/>
<path d="M20.9375 28.2812C21.25 29.375 22.1875 30.1562 23.2812 30.1562C23.5938 30.1562 24.5313 29.8437 24.5313 30.1562" stroke="white" stroke-miterlimit="10" stroke-linecap="round" stroke-linejoin="round"/>
<path d="M27.9687 32.6562V32.5C27.9687 31.0937 26.875 30.1562 25.625 30.1562C25.625 30.1562 24.5312 29.8437 24.5312 30.1562" stroke="white" stroke-miterlimit="10" stroke-linecap="round" stroke-linejoin="round"/>
<path d="M20.9375 28.2812C20.9375 28.125 20.9375 27.9688 20.9375 27.6563C20.9375 26.4063 22.0312 25.3125 23.2812 25.3125H25H25.1563H27.9687" stroke="white" stroke-miterlimit="10" stroke-linecap="round" stroke-linejoin="round"/>
<path d="M20.9375 34.8437H25H25.625C26.875 34.8437 27.9688 33.9062 27.9688 32.6562" stroke="white" stroke-miterlimit="10" stroke-linecap="round" stroke-linejoin="round"/>
<path d="M25 22.6562V25.3125" stroke="white" stroke-miterlimit="10" stroke-linecap="round" stroke-linejoin="round"/>
<path d="M25 35V37.6563" stroke="white" stroke-miterlimit="10" stroke-linecap="round" stroke-linejoin="round"/>
<path d="M12.6563 6.5625L12.3438 11.875H8.75C7.96875 11.875 7.34375 12.0313 6.71875 12.1875C4.21875 12.9688 2.34375 15.3125 2.03125 17.9688V11.7188C2.03125 9.375 3.75 7.1875 5.9375 6.71875C6.25 6.5625 6.71875 6.5625 7.1875 6.5625H12.6563Z" stroke="#04542C" stroke-miterlimit="10" stroke-linecap="round" stroke-linejoin="round"/>
<path d="M46.875 11.7187V17.9687C46.7187 15.3125 44.6875 12.9687 42.1875 12.1875C41.5625 12.0312 40.7813 11.875 40.1563 11.875H36.875L37.1875 6.71875H42.3438C45 7.03125 46.875 9.0625 46.875 11.7187Z" stroke="#04542C" stroke-miterlimit="10" stroke-linecap="round" stroke-linejoin="round"/>
<path d="M37.3438 4.375L36.875 11.875H12.3438L12.9688 2.65625C13.125 2.03125 13.5937 1.5625 14.375 1.5625L36.25 3.125C36.875 3.28125 37.3438 3.75 37.3438 4.375Z" stroke="#04542C" stroke-miterlimit="10" stroke-linecap="round" stroke-linejoin="round"/>
</svg>
