<svg width="74" height="74" viewBox="0 0 74 74" fill="none" xmlns="http://www.w3.org/2000/svg">
<g clip-path="url(#clip0_228_787)">
<path d="M50.875 18.5V53.9583C50.875 60.7725 45.3558 66.2917 38.5416 66.2917C31.7275 66.2917 26.2083 60.7725 26.2083 53.9583V15.4167C26.2083 11.1617 29.6616 7.70833 33.9166 7.70833C38.1716 7.70833 41.625 11.1617 41.625 15.4167V47.7917C41.625 49.4875 40.2529 50.875 38.5416 50.875C36.8304 50.875 35.4583 49.4875 35.4583 47.7917V18.5H30.8333V47.7917C30.8333 52.0467 34.2866 55.5 38.5416 55.5C42.7966 55.5 46.25 52.0467 46.25 47.7917V15.4167C46.25 8.6025 40.7308 3.08333 33.9166 3.08333C27.1025 3.08333 21.5833 8.6025 21.5833 15.4167V53.9583C21.5833 63.3317 29.1837 70.9167 38.5416 70.9167C47.8996 70.9167 55.5 63.3317 55.5 53.9583V18.5H50.875Z" fill="#04542C"/>
</g>
<defs>
<clipPath id="clip0_228_787">
<rect width="74" height="74" fill="white"/>
</clipPath>
</defs>
</svg>
