<svg width="77" height="77" viewBox="0 0 77 77" fill="none" xmlns="http://www.w3.org/2000/svg">
<g clip-path="url(#clip0_228_766)">
<path d="M65.5589 21.6385C66.2137 20.9569 66.5763 20.0438 66.5686 19.0958C66.5608 18.1479 66.1834 17.2409 65.5175 16.5702C64.8517 15.8995 63.9507 15.5189 63.0086 15.5102C62.0665 15.5015 61.1587 15.8655 60.4807 16.5238L57.0027 20.0236C52.7606 16.9927 47.8273 15.0876 42.6593 14.4846V10.6281H46.2523C47.2052 10.6281 48.1191 10.2472 48.793 9.56913C49.4668 8.89109 49.8453 7.97147 49.8453 7.01257C49.8453 6.05368 49.4668 5.13406 48.793 4.45602C48.1191 3.77798 47.2052 3.39706 46.2523 3.39706H31.8801C30.9272 3.39706 30.0133 3.77798 29.3395 4.45602C28.6656 5.13406 28.2871 6.05368 28.2871 7.01257C28.2871 7.97147 28.6656 8.89109 29.3395 9.56913C30.0133 10.2472 30.9272 10.6281 31.8801 10.6281H35.4732V14.4846C30.3032 15.0926 25.3695 17.0044 21.1298 20.0429L17.6517 16.5238C17.3201 16.1786 16.9235 15.9034 16.485 15.7141C16.0466 15.5248 15.5751 15.4253 15.098 15.4214C14.6209 15.4174 14.1478 15.5091 13.7063 15.6911C13.2648 15.8731 12.8638 16.1418 12.5266 16.4814C12.1894 16.821 11.9228 17.2248 11.7423 17.6693C11.5619 18.1137 11.4712 18.5898 11.4756 19.0699C11.4799 19.5499 11.5793 20.0243 11.7678 20.4653C11.9563 20.9063 12.2302 21.3052 12.5735 21.6385L15.7785 24.8635C11.7944 29.3797 9.19202 34.9581 8.28457 40.9276C7.37712 46.8971 8.20325 53.0032 10.6635 58.5113C13.1238 64.0194 17.1135 68.6948 22.1524 71.9749C27.1913 75.255 33.0649 77 39.0662 77C45.0676 77 50.9411 75.255 55.98 71.9749C61.0189 68.6948 65.0086 64.0194 67.4689 58.5113C69.9292 53.0032 70.7553 46.8971 69.8479 40.9276C68.9404 34.9581 66.3381 29.3797 62.3539 24.8635L65.5589 21.6385ZM39.0662 67.2855C34.8024 67.2855 30.6343 66.0133 27.0891 63.6296C23.5439 61.2459 20.7807 57.8579 19.149 53.894C17.5173 49.9302 17.0904 45.5684 17.9222 41.3604C18.754 37.1523 20.8073 33.287 23.8222 30.2532C26.8372 27.2193 30.6785 25.1533 34.8604 24.3162C39.0423 23.4792 43.3769 23.9088 47.3162 25.5507C51.2555 27.1926 54.6224 29.9731 56.9912 33.5405C59.3601 37.1079 60.6245 41.302 60.6245 45.5925C60.6245 51.3458 58.3532 56.8635 54.3102 60.9318C50.2672 65 44.7838 67.2855 39.0662 67.2855Z" fill="#04542C"/>
<path d="M43.4975 36.1389L36.1372 42.933C35.4665 43.5734 35.0951 44.4313 35.103 45.322C35.111 46.2127 35.4976 47.0649 36.1796 47.6951C36.8616 48.3252 37.7844 48.6829 38.7494 48.691C39.7143 48.6992 40.6441 48.3572 41.3385 47.7387L48.6988 40.9446C49.0504 40.6313 49.331 40.2566 49.524 39.8422C49.7171 39.4279 49.8189 38.9822 49.8233 38.5311C49.8278 38.08 49.7349 37.6327 49.5501 37.2151C49.3653 36.7976 49.0922 36.4182 48.7468 36.099C48.4015 35.7799 47.9907 35.5275 47.5385 35.3565C47.0863 35.1855 46.6018 35.0993 46.1131 35.1031C45.6245 35.1068 45.1415 35.2003 44.6924 35.3781C44.2433 35.5559 43.8371 35.8145 43.4975 36.1389Z" fill="#04542C"/>
</g>
<defs>
<clipPath id="clip0_228_766">
<rect width="77" height="77" fill="white"/>
</clipPath>
</defs>
</svg>
