<svg width="74" height="67" viewBox="0 0 74 67" fill="none" xmlns="http://www.w3.org/2000/svg">
<g clip-path="url(#clip0_228_790)">
<path d="M34.8237 18.883L41.7959 20.7543C42.0327 20.8107 42.2445 20.9452 42.3986 21.1369C42.5526 21.3285 42.6401 21.5667 42.6476 21.8143C42.6476 22.4162 42.1222 22.9135 41.476 22.9135H36.9024C36.4095 22.912 35.9215 22.8143 35.4648 22.6256C34.7916 22.3377 34.0156 22.4031 33.4991 22.8873L31.0582 25.1773C30.9453 25.278 30.8478 25.3953 30.7691 25.5254C30.6683 25.6938 30.6013 25.8808 30.5718 26.0757C30.5423 26.2706 30.551 26.4695 30.5973 26.661C30.6436 26.8525 30.7267 27.0327 30.8417 27.1913C30.9568 27.3499 31.1015 27.4838 31.2676 27.5852C32.6194 28.4115 34.1329 28.9252 35.7011 29.09V31.4062C35.7011 32.5578 36.7071 33.5 37.9327 33.5H40.1643C41.3912 33.5 42.3971 32.5578 42.3971 31.4062V29.1031C46.6277 28.632 49.8279 25.0465 49.2704 20.859C48.8657 17.8492 46.3849 15.4545 43.2887 14.617L36.3165 12.7457C36.0797 12.6893 35.8679 12.5548 35.7138 12.3631C35.5598 12.1715 35.4722 11.9333 35.4648 11.6857C35.4648 11.0838 35.9902 10.5865 36.6364 10.5865H41.21C41.7046 10.5873 42.1944 10.685 42.6528 10.8744C43.3247 11.1623 44.1019 11.0969 44.6184 10.6127L47.0594 8.32265C47.1685 8.22414 47.2625 8.10944 47.3382 7.98242C47.4398 7.8141 47.5077 7.62694 47.5379 7.43174C47.5681 7.23654 47.56 7.03718 47.5142 6.84518C47.4683 6.65317 47.3855 6.47233 47.2706 6.31309C47.1557 6.15386 47.011 6.01939 46.8448 5.91746C45.4925 5.09113 43.9786 4.5774 42.41 4.41258V2.09375C42.41 0.942187 41.4053 0 40.1784 0H37.9468C36.7199 0 35.7153 0.942187 35.7153 2.09375V4.39687C31.4898 4.86797 28.2832 8.45351 28.8407 12.641C29.2441 15.6508 31.7326 18.0455 34.8237 18.883ZM72.6215 42.935C71.1055 41.5348 68.7416 41.6264 67.1486 42.935L55.2777 52.6055C53.8206 53.7962 52.007 54.4428 50.1388 54.4375H34.9444C34.3993 54.4375 33.8764 54.2169 33.4909 53.8242C33.1054 53.4316 32.8889 52.899 32.8889 52.3437C32.8889 51.7884 33.1054 51.2559 33.4909 50.8632C33.8764 50.4706 34.3993 50.25 34.9444 50.25H45.0025C47.0452 50.25 48.9479 48.8236 49.2742 46.7691C49.3145 46.5332 49.3342 46.2941 49.3333 46.0546C49.3313 44.9454 48.8972 43.8823 48.1265 43.0987C47.3557 42.3151 46.3112 41.875 45.2222 41.875H24.6667C21.2 41.8759 17.839 43.0905 15.1469 45.3153L9.17292 50.25H2.05556C1.51039 50.25 0.98755 50.4706 0.602058 50.8632C0.216567 51.2559 0 51.7884 0 52.3437L0 64.9062C0 65.4615 0.216567 65.9941 0.602058 66.3867C0.98755 66.7794 1.51039 67 2.05556 67H47.8906C49.7581 67.0015 51.5705 66.3554 53.0295 65.168L72.4583 49.334C72.9257 48.9532 73.3058 48.4731 73.5721 47.9272C73.8384 47.3813 73.9845 46.7828 74.0002 46.1734C74.0158 45.564 73.9007 44.9585 73.6628 44.3991C73.4249 43.8398 73.0699 43.3401 72.6228 42.935H72.6215Z" fill="#04542C"/>
</g>
<defs>
<clipPath id="clip0_228_790">
<rect width="74" height="67" fill="white"/>
</clipPath>
</defs>
</svg>
