<svg width="68" height="68" viewBox="0 0 68 68" fill="none" xmlns="http://www.w3.org/2000/svg">
<path d="M34 0C29.4913 0 25.1673 1.79107 21.9792 4.97918C18.7911 8.1673 17 12.4913 17 17V19.8333H22.6667V17C22.6667 13.9942 23.8607 11.1115 25.9861 8.98612C28.1115 6.86071 30.9942 5.66667 34 5.66667C37.0058 5.66667 39.8885 6.86071 42.0139 8.98612C44.1393 11.1115 45.3333 13.9942 45.3333 17V19.8333H51V17C51 12.4913 49.2089 8.1673 46.0208 4.97918C42.8327 1.79107 38.5087 0 34 0Z" fill="#04542C"/>
<path d="M51 25.5H17C14.7457 25.5 12.5837 26.3955 10.9896 27.9896C9.39553 29.5837 8.5 31.7457 8.5 34V56.6667C8.5 58.921 9.39553 61.083 10.9896 62.6771C12.5837 64.2711 14.7457 65.1667 17 65.1667H51C53.2543 65.1667 55.4163 64.2711 57.0104 62.6771C58.6045 61.083 59.5 58.921 59.5 56.6667V34C59.5 31.7457 58.6045 29.5837 57.0104 27.9896C55.4163 26.3955 53.2543 25.5 51 25.5ZM36.8333 47.4017V53.8333C36.8333 54.5848 36.5348 55.3055 36.0035 55.8368C35.4721 56.3682 34.7514 56.6667 34 56.6667C33.2486 56.6667 32.5279 56.3682 31.9965 55.8368C31.4652 55.3055 31.1667 54.5848 31.1667 53.8333V47.4017C30.0864 46.778 29.2421 45.8152 28.7647 44.6627C28.2873 43.5103 28.2036 42.2325 28.5264 41.0275C28.8493 39.8226 29.5607 38.7579 30.5504 37.9985C31.54 37.2391 32.7526 36.8275 34 36.8275C35.2474 36.8275 36.46 37.2391 37.4496 37.9985C38.4393 38.7579 39.1507 39.8226 39.4736 41.0275C39.7964 42.2325 39.7127 43.5103 39.2353 44.6627C38.7579 45.8152 37.9136 46.778 36.8333 47.4017Z" fill="#04542C"/>
</svg>
