<svg width="162" height="68" viewBox="0 0 162 68" fill="none" xmlns="http://www.w3.org/2000/svg">
<path d="M3.93173 1.2088C4.11511 0.687853 4.68609 0.414206 5.20704 0.597594L13.6964 3.58608C14.2173 3.76946 14.491 4.34044 14.3076 4.86139C14.1242 5.38234 13.5532 5.65598 13.0323 5.4726L5.48619 2.81617L2.82977 10.3623C2.64638 10.8832 2.0754 11.1568 1.55445 10.9735C1.0335 10.7901 0.759856 10.2191 0.943244 9.69815L3.93173 1.2088ZM5.77677 1.10867C6.1505 1.88848 6.52823 2.65957 6.90987 3.42203L5.1214 4.31722C4.7346 3.54447 4.35185 2.7631 3.9732 1.97304L5.77677 1.10867ZM9.24599 7.89386C10.0711 9.40753 10.9123 10.8846 11.769 12.3259L10.0498 13.3478C9.18028 11.885 8.32674 10.3863 7.48992 8.85106L9.24599 7.89386ZM14.4361 16.6222C15.3645 18.0543 16.309 19.4481 17.2688 20.8044L15.6362 21.9596C14.6606 20.581 13.7009 19.1648 12.7579 17.7101L14.4361 16.6222ZM20.2941 24.8922C21.3397 26.2431 22.4013 27.5532 23.478 28.8234L21.9524 30.1166C20.8564 28.8236 19.7761 27.4905 18.7125 26.1164L20.2941 24.8922ZM26.8253 32.5941C27.9899 33.8465 29.1701 35.056 30.3648 36.2236L28.9668 37.6539C27.7493 36.4639 26.5469 35.2317 25.3607 33.9561L26.8253 32.5941ZM34.0728 39.6749C35.3473 40.8039 36.6364 41.8889 37.9387 42.9311L36.689 44.4926C35.3607 43.4296 34.0461 42.3231 32.7466 41.1719L34.0728 39.6749ZM41.9588 45.985C43.3366 46.9774 44.7273 47.9254 46.1295 48.8302L45.0451 50.5107C43.6144 49.5875 42.1955 48.6203 40.7899 47.6078L41.9588 45.985ZM50.4538 51.4655C51.9268 52.312 53.4105 53.1139 54.9035 53.873L53.9971 55.6558C52.474 54.8814 50.9602 54.0632 49.4573 53.1996L50.4538 51.4655ZM59.4679 56.0494C61.0162 56.7401 62.5726 57.3874 64.1354 57.993L63.4127 59.8579C61.8194 59.2405 60.2322 58.5804 58.653 57.8759L59.4679 56.0494ZM68.8936 59.7036C70.5014 60.2377 72.1141 60.7301 73.7298 61.1825L73.1906 63.1084C71.5448 62.6476 69.9016 62.146 68.2631 61.6016L68.8936 59.7036ZM78.6315 62.4322C80.2843 62.8132 81.9383 63.1545 83.5918 63.4579L83.2308 65.425C81.5484 65.1163 79.8649 64.769 78.1823 64.3811L78.6315 62.4322ZM88.5936 64.2629C90.2746 64.4961 91.9528 64.6922 93.6264 64.8529L93.4351 66.8438C91.7343 66.6804 90.0281 66.4811 88.3187 66.2439L88.5936 64.2629ZM98.6804 65.2342C100.377 65.3277 102.067 65.3866 103.747 65.413L103.716 67.4128C102.01 67.386 100.294 67.3262 98.5704 67.2312L98.6804 65.2342ZM108.818 65.3956C110.52 65.3574 112.21 65.2874 113.885 65.1878L114.004 67.1842C112.305 67.2853 110.59 67.3564 108.863 67.3951L108.818 65.3956ZM118.943 64.795C120.643 64.6323 122.324 64.4405 123.985 64.2221L124.245 66.205C122.562 66.4264 120.857 66.6209 119.134 66.7859L118.943 64.795ZM129.004 63.4728C130.694 63.1904 132.358 62.8818 133.994 62.55L134.391 64.51C132.734 64.8464 131.046 65.1592 129.333 65.4455L129.004 63.4728ZM138.949 61.455C140.623 61.0543 142.262 60.6307 143.86 60.1879L144.394 62.1154C142.773 62.5644 141.112 62.9938 139.414 63.4001L138.949 61.455ZM148.717 58.747C150.369 58.2236 151.968 57.6818 153.51 57.1263L154.188 59.0079C152.621 59.5723 150.997 60.1224 149.321 60.6535L148.717 58.747ZM158.257 55.3017C159.046 54.9785 159.815 54.6525 160.564 54.3248L161.366 56.1571C160.602 56.4912 159.818 56.8233 159.015 57.1524L158.257 55.3017Z" fill="black"/>
</svg>
