<svg width="70" height="91" viewBox="0 0 70 91" fill="none" xmlns="http://www.w3.org/2000/svg">
<g id="8665100_calculator_icon 1" clip-path="url(#clip0_600_1028)">
<path id="Vector" d="M61.25 0.0198975H8.75C4.07969 0.0198975 0 3.95388 0 8.4574V81.5824C0 86.0824 4.07969 90.0199 8.75 90.0199H61.25C65.9203 90.0199 70 86.0859 70 81.5824V8.4574C70 3.95388 65.9167 0.0198975 61.25 0.0198975ZM11.6667 36.5824C11.6667 35.0355 12.9792 33.7699 14.5833 33.7699H20.4167C22.0208 33.7699 23.3333 35.0355 23.3333 36.5824V42.2074C23.3333 43.7543 22.0208 45.0199 20.4167 45.0199H14.5833C12.9792 45.0199 11.6667 43.7543 11.6667 42.2074V36.5824ZM11.6667 53.4574C11.6667 51.9105 12.9792 50.6449 14.5833 50.6449H20.4167C22.0208 50.6449 23.3333 51.9105 23.3333 53.4574V59.0824C23.3333 60.6293 22.0208 61.8949 20.4167 61.8949H14.5833C12.9792 61.8949 11.6667 60.6293 11.6667 59.0824V53.4574ZM40.8333 75.9574C40.8333 77.5044 39.521 78.7699 37.9167 78.7699H14.5833C12.9792 78.7699 11.6667 77.5043 11.6667 75.9574V70.3324C11.6667 68.7855 12.9792 67.5199 14.5833 67.5199H37.9167C39.521 67.5199 40.8333 68.7853 40.8333 70.3324V75.9574ZM40.8333 59.0824C40.8333 60.6294 39.521 61.8949 37.9167 61.8949H32.0833C30.4792 61.8949 29.1667 60.6293 29.1667 59.0824V53.4574C29.1667 51.9105 30.4792 50.6449 32.0833 50.6449H37.9167C39.5208 50.6449 40.8333 51.9105 40.8333 53.4574V59.0824ZM40.8333 42.2074C40.8333 43.7543 39.5208 45.0199 37.9167 45.0199H32.0833C30.4792 45.0199 29.1667 43.7543 29.1667 42.2074V36.5824C29.1667 35.0355 30.4792 33.7699 32.0833 33.7699H37.9167C39.5208 33.7699 40.8333 35.0355 40.8333 36.5824V42.2074ZM58.3333 75.9574C58.3333 77.5044 57.021 78.7699 55.4167 78.7699H49.5833C47.9794 78.7699 46.6667 77.5044 46.6667 75.9574V70.3324C46.6667 68.7853 47.9794 67.5199 49.5833 67.5199H55.4167C57.021 67.5199 58.3333 68.7853 58.3333 70.3324V75.9574ZM58.3333 59.0824C58.3333 60.6294 57.021 61.8949 55.4167 61.8949H49.5833C47.9794 61.8949 46.6667 60.6294 46.6667 59.0824V53.4574C46.6667 51.9105 47.9792 50.6449 49.5833 50.6449H55.4167C57.0208 50.6449 58.3333 51.9105 58.3333 53.4574V59.0824ZM58.3333 42.2074C58.3333 43.7543 57.0208 45.0199 55.4167 45.0199H49.5833C47.9792 45.0199 46.6667 43.7543 46.6667 42.2074V36.5824C46.6667 35.0355 47.9792 33.7699 49.5833 33.7699H55.4167C57.0208 33.7699 58.3333 35.0355 58.3333 36.5824V42.2074ZM58.3333 25.3324C58.3333 26.8793 57.0208 28.1449 55.4167 28.1449H14.5833C12.9792 28.1449 11.6667 26.8793 11.6667 25.3324V14.0824C11.6667 12.5355 12.9792 11.2699 14.5833 11.2699H55.4167C57.0208 11.2699 58.3333 12.5355 58.3333 14.0824V25.3324Z" fill="#04542C"/>
</g>
<defs>
<clipPath id="clip0_600_1028">
<rect width="70" height="90" fill="white" transform="translate(0 0.0198975)"/>
</clipPath>
</defs>
</svg>
