<svg width="100" height="100" viewBox="0 0 100 100" fill="none" xmlns="http://www.w3.org/2000/svg">
<g id="1564515_call_device_mobile_phone_smartphone_icon 1">
<g id="icons">
<path id="mobile" d="M83.3334 16.6667C83.3334 7.5 75.8334 0 66.6668 0H33.3334C24.1667 0 16.6667 7.5 16.6667 16.6667V83.3333C16.6667 92.5 24.1667 100 33.3334 100H66.6668C75.8334 100 83.3334 92.5 83.3334 83.3333V16.6667ZM54.1668 91.6667H45.8334C43.3334 91.6667 41.6667 90 41.6667 87.5C41.6667 85 43.3334 83.3333 45.8334 83.3333H54.1668C56.6668 83.3333 58.3334 85 58.3334 87.5C58.3334 90 56.6668 91.6667 54.1668 91.6667ZM75.0001 70.8333C75.0001 73.3333 73.3334 75 70.8334 75H29.1667C26.6667 75 25.0001 73.3333 25.0001 70.8333V20.8333C25.0001 18.3333 26.6667 16.6667 29.1667 16.6667H70.8334C73.3334 16.6667 75.0001 18.3333 75.0001 20.8333V70.8333Z" fill="#04542C"/>
</g>
</g>
</svg>
