<svg width="66" height="86" viewBox="0 0 66 86" fill="none" xmlns="http://www.w3.org/2000/svg">
<g id="329-Document Report">
<path id="Vector" d="M20.0158 3C18.6337 3 17.3133 3.57204 16.3681 4.58029L4.20192 17.5575C3.33311 18.4843 2.84961 19.7069 2.84961 20.9772V78C2.84961 80.7614 5.08819 83 7.84961 83H57.8496C60.611 83 62.8496 80.7614 62.8496 78V8C62.8496 5.23858 60.611 3 57.8496 3H20.0158Z" stroke="#04542C" stroke-width="5" stroke-linejoin="round"/>
<path id="Vector_2" d="M17.8496 3V14C17.8496 16.7614 15.611 19 12.8496 19H2.84961" stroke="#04542C" stroke-width="5" stroke-linejoin="round"/>
<path id="Vector_3" d="M15.3496 32.3333V64.6667C15.3496 67.4281 17.5882 69.6666 20.3496 69.6666H52.8496" stroke="#04542C" stroke-width="5" stroke-linejoin="round"/>
<path id="Vector_4" d="M15.3496 69.6667L29.2019 54.8909C31.1773 52.7838 34.5219 52.7838 36.4973 54.8909L36.7019 55.1092C38.6773 57.2162 42.0219 57.2162 43.9973 55.1092L52.8496 45.6667" stroke="#04542C" stroke-width="5" stroke-linejoin="round"/>
</g>
</svg>
