<svg width="100" height="100" viewBox="0 0 100 100" fill="none" xmlns="http://www.w3.org/2000/svg">
<g id="7830768_optimization_timer_icon 1" clip-path="url(#clip0_600_1014)">
<path id="Vector" d="M85.1415 28.1019C85.9919 27.2168 86.4628 26.0309 86.4527 24.7998C86.4427 23.5686 85.9525 22.3907 85.0877 21.5197C84.2229 20.6487 83.0528 20.1543 81.8293 20.1431C80.6059 20.1318 79.4269 20.6045 78.5464 21.4594L74.0295 26.0046C68.5203 22.0685 62.1133 19.5943 55.4016 18.8112V13.8027H60.0679C61.3055 13.8027 62.4924 13.308 63.3675 12.4274C64.2426 11.5468 64.7342 10.3525 64.7342 9.10721C64.7342 7.86189 64.2426 6.66759 63.3675 5.78702C62.4924 4.90645 61.3055 4.41174 60.0679 4.41174H41.4028C40.1652 4.41174 38.9783 4.90645 38.1032 5.78702C37.2281 6.66759 36.7365 7.86189 36.7365 9.10721C36.7365 10.3525 37.2281 11.5468 38.1032 12.4274C38.9783 13.308 40.1652 13.8027 41.4028 13.8027H46.0691V18.8112C39.3548 19.6007 32.9475 22.0836 27.4413 26.0297L22.9243 21.4594C22.4936 21.0112 21.9786 20.6537 21.4091 20.4079C20.8397 20.1621 20.2274 20.0328 19.6078 20.0277C18.9882 20.0226 18.3738 20.1417 17.8004 20.3781C17.2271 20.6144 16.7062 20.9633 16.2683 21.4044C15.8304 21.8455 15.4842 22.3699 15.2498 22.9471C15.0154 23.5242 14.8977 24.1426 14.9033 24.766C14.909 25.3895 15.038 26.0056 15.2829 26.5783C15.5277 27.1511 15.8834 27.669 16.3293 28.1019L20.4916 32.2903C15.3174 38.1554 11.9377 45.4002 10.7592 53.1527C9.5807 60.9053 10.6536 68.8353 13.8488 75.9887C17.044 83.1421 22.2253 89.214 28.7694 93.4739C35.3134 97.7337 42.9414 100 50.7354 100C58.5293 100 66.1573 97.7337 72.7013 93.4739C79.2454 89.214 84.4268 83.1421 87.6219 75.9887C90.8171 68.8353 91.89 60.9053 90.7115 53.1527C89.533 45.4002 86.1533 38.1554 80.9791 32.2903L85.1415 28.1019ZM50.7354 87.3838C45.1979 87.3838 39.7849 85.7315 35.1807 82.6358C30.5765 79.5401 26.9879 75.1401 24.8688 69.9922C22.7498 64.8443 22.1953 59.1797 23.2756 53.7147C24.3559 48.2497 27.0224 43.2298 30.938 39.2898C34.8535 35.3498 39.8423 32.6666 45.2733 31.5795C50.7043 30.4924 56.3337 31.0504 61.4496 33.1827C66.5655 35.315 70.9382 38.926 74.0146 43.559C77.091 48.192 78.7331 53.6389 78.7331 59.211C78.7331 66.6829 75.7833 73.8487 70.5327 79.1321C65.2821 84.4156 58.1608 87.3838 50.7354 87.3838Z" fill="#04542C"/>
<path id="Vector_2" d="M56.4902 46.9336L46.9314 55.7571C46.0603 56.5888 45.578 57.703 45.5883 58.8598C45.5986 60.0165 46.1007 61.1233 46.9864 61.9417C47.8721 62.76 49.0706 63.2245 50.3238 63.2351C51.5769 63.2457 52.7844 62.8016 53.6863 61.9983L63.2451 53.1748C63.7018 52.768 64.0661 52.2813 64.3169 51.7432C64.5676 51.2051 64.6998 50.6262 64.7056 50.0404C64.7114 49.4546 64.5908 48.8736 64.3507 48.3314C64.1107 47.7891 63.7561 47.2963 63.3075 46.8819C62.859 46.4675 62.3255 46.1397 61.7383 45.9176C61.151 45.6955 60.5217 45.5836 59.8871 45.5884C59.2525 45.5932 58.6253 45.7146 58.0421 45.9456C57.4588 46.1766 56.9313 46.5124 56.4902 46.9336Z" fill="#04542C"/>
</g>
<defs>
<clipPath id="clip0_600_1014">
<rect width="100" height="100" fill="white"/>
</clipPath>
</defs>
</svg>
