<svg width="100" height="100" viewBox="0 0 100 100" fill="none" xmlns="http://www.w3.org/2000/svg">
<g id="Group 6">
<path id="Vector" d="M47.9412 47.2592C42.5879 45.6766 40.8663 44.0538 40.8663 41.5056C40.8663 38.5819 43.2364 36.53 47.2337 36.53C51.4315 36.53 52.988 38.8099 53.1295 42.1628H58.3414C58.1881 37.5358 55.7001 33.3246 50.7712 31.9432V26.069H43.6963V31.8627C39.1211 33.0027 35.4421 36.3556 35.4421 41.5459C35.4421 47.742 39.9583 50.8266 46.5262 52.6238C52.4338 54.2332 53.6012 56.5802 53.6012 59.1015C53.6012 60.9389 52.4574 63.8895 47.2337 63.8895C42.3756 63.8895 40.4536 61.4083 40.206 58.2566H35.0059C35.3006 64.1309 39.1565 67.4167 43.6963 68.5298V74.3504H50.7712V68.5835C55.3581 67.5776 59.0253 64.56 59.0253 59.0479C59.0253 51.457 53.2946 48.8551 47.9412 47.2592Z" fill="#04542C"/>
<path id="Ellipse 1" d="M64.4705 85.6642C57.1352 89.7845 48.7294 91.1971 40.5636 89.6818C32.3979 88.1664 24.9312 83.8082 19.3277 77.2868C13.7243 70.7654 10.2991 62.4473 9.58617 53.6295C8.87327 44.8117 10.9127 35.9898 15.3866 28.5393C19.8604 21.0888 26.5172 15.4286 34.3189 12.4411C42.1206 9.45367 50.6288 9.3069 58.5168 12.0237C66.4048 14.7405 73.2293 20.1682 77.9262 27.4605C82.623 34.7528 84.9283 43.4998 84.4824 52.3376" stroke="#04542C" stroke-width="8" stroke-linecap="round"/>
<g id="Vector_2">
<path d="M66.7668 72.2218L74.3484 64.4833C74.7672 64.0203 75.3376 63.7889 75.9658 63.7889C76.594 63.7889 77.1572 64.0203 77.5832 64.4833L85.1937 72.2218C86.0962 73.14 86.0962 74.6368 85.1937 75.5549C84.2911 76.4731 82.8325 76.4731 81.93 75.5549L78.2908 71.8438V88.5863C78.2908 89.8902 77.2583 90.9472 75.9802 90.9472C74.7022 90.9472 73.6696 89.8902 73.6696 88.5863V71.8438L70.0305 75.5626C69.1279 76.4808 67.6693 76.4808 66.7668 75.5626C65.8642 74.6368 65.8642 73.1477 66.7668 72.2218Z" fill="#04542C"/>
<path d="M66.7668 72.2218L74.3484 64.4833C74.7672 64.0203 75.3376 63.7889 75.9658 63.7889C76.594 63.7889 77.1572 64.0203 77.5832 64.4833L85.1937 72.2218C86.0962 73.14 86.0962 74.6368 85.1937 75.5549C84.2911 76.4731 82.8325 76.4731 81.93 75.5549L78.2908 71.8438V88.5863C78.2908 89.8902 77.2583 90.9472 75.9802 90.9472C74.7022 90.9472 73.6696 89.8902 73.6696 88.5863V71.8438L70.0305 75.5626C69.1279 76.4808 67.6693 76.4808 66.7668 75.5626C65.8642 74.6368 65.8642 73.1477 66.7668 72.2218Z" fill="#04542C"/>
</g>
<g id="Vector_3">
<path d="M99.3226 82.5142L91.741 90.2528C91.3222 90.7157 90.7518 90.9472 90.1236 90.9472C89.4954 90.9472 88.9322 90.7157 88.5062 90.2528L80.8957 82.5142C79.9931 81.5961 79.9931 80.0993 80.8957 79.1812C81.7983 78.263 83.2568 78.263 84.1594 79.1812L87.7986 82.8923V66.1498C87.7986 64.8459 88.8311 63.7889 90.1091 63.7889C91.3872 63.7889 92.4197 64.8459 92.4197 66.1498V82.8923L96.0589 79.1735C96.9615 78.2553 98.42 78.2553 99.3226 79.1735C100.225 80.0993 100.225 81.5884 99.3226 82.5142Z" fill="#04542C"/>
<path d="M99.3226 82.5142L91.741 90.2528C91.3222 90.7157 90.7518 90.9472 90.1236 90.9472C89.4954 90.9472 88.9322 90.7157 88.5062 90.2528L80.8957 82.5142C79.9931 81.5961 79.9931 80.0993 80.8957 79.1812C81.7983 78.263 83.2568 78.263 84.1594 79.1812L87.7986 82.8923V66.1498C87.7986 64.8459 88.8311 63.7889 90.1091 63.7889C91.3872 63.7889 92.4197 64.8459 92.4197 66.1498V82.8923L96.0589 79.1735C96.9615 78.2553 98.42 78.2553 99.3226 79.1735C100.225 80.0993 100.225 81.5884 99.3226 82.5142Z" fill="#04542C"/>
</g>
</g>
</svg>
