<svg width="71" height="67" viewBox="0 0 71 67" fill="none" xmlns="http://www.w3.org/2000/svg">
<path d="M33.9309 31.3225C30.142 30.2736 28.9235 29.198 28.9235 27.5091C28.9235 25.5713 30.601 24.2113 33.4302 24.2113C36.4012 24.2113 37.5028 25.7225 37.603 27.9447H41.2917C41.1832 24.878 39.4223 22.0869 35.9338 21.1713V17.278H30.9265V21.118C27.6884 21.8736 25.0845 24.0958 25.0845 27.5358C25.0845 31.6425 28.2809 33.6869 32.9294 34.878C37.1106 35.9447 37.9368 37.5002 37.9368 39.1713C37.9368 40.3891 37.1273 42.3447 33.4302 42.3447C29.9918 42.3447 28.6314 40.7002 28.4562 38.6113H24.7758C24.9844 42.5047 27.7134 44.6825 30.9265 45.4202V49.278H35.9338V45.4558C39.1803 44.7891 41.7758 42.7891 41.7758 39.1358C41.7758 34.1047 37.7198 32.3802 33.9309 31.3225Z" fill="#04542C"/>
<path d="M45.6295 56.7765C40.4379 59.5074 34.4886 60.4436 28.7092 59.4393C22.9298 58.4349 17.6452 55.5464 13.6793 51.2242C9.71341 46.9019 7.28919 41.3888 6.78463 35.5446C6.28006 29.7003 7.72352 23.8533 10.8899 18.9153C14.0563 13.9773 18.7677 10.2258 24.2895 8.24573C29.8112 6.2657 35.8329 6.16843 41.4158 7.96909C46.9986 9.76974 51.8287 13.3671 55.1529 18.2003C58.4771 23.0335 60.1087 28.8308 59.7932 34.6883" stroke="#04542C" stroke-width="8" stroke-linecap="round"/>
<path d="M47.2549 47.8672L52.6208 42.7382C52.9172 42.4314 53.3209 42.278 53.7655 42.278C54.2101 42.278 54.6088 42.4314 54.9103 42.7382L60.2967 47.8672C60.9355 48.4757 60.9355 49.4678 60.2967 50.0763C59.6579 50.6848 58.6255 50.6848 57.9867 50.0763L55.4111 47.6167V58.7132C55.4111 59.5774 54.6803 60.278 53.7758 60.278C52.8712 60.278 52.1404 59.5774 52.1404 58.7132V47.6167L49.5648 50.0814C48.926 50.6899 47.8937 50.6899 47.2549 50.0814C46.6161 49.4678 46.6161 48.4809 47.2549 47.8672Z" fill="#04542C"/>
<path d="M47.2549 47.8672L52.6208 42.7382C52.9172 42.4314 53.3209 42.278 53.7655 42.278C54.2101 42.278 54.6088 42.4314 54.9103 42.7382L60.2967 47.8672C60.9355 48.4757 60.9355 49.4678 60.2967 50.0763C59.6579 50.6848 58.6255 50.6848 57.9867 50.0763L55.4111 47.6167V58.7132C55.4111 59.5774 54.6803 60.278 53.7758 60.278C52.8712 60.278 52.1404 59.5774 52.1404 58.7132V47.6167L49.5648 50.0814C48.926 50.6899 47.8937 50.6899 47.2549 50.0814C46.6161 49.4678 46.6161 48.4809 47.2549 47.8672Z" fill="#04542C"/>
<path d="M70.2967 54.6888L64.9307 59.8178C64.6343 60.1246 64.2306 60.278 63.786 60.278C63.3414 60.278 62.9428 60.1246 62.6412 59.8178L57.2549 54.6888C56.6161 54.0803 56.6161 53.0882 57.2549 52.4797C57.8937 51.8712 58.926 51.8712 59.5648 52.4797L62.1404 54.9394V43.8428C62.1404 42.9786 62.8712 42.278 63.7758 42.278C64.6803 42.278 65.4111 42.9786 65.4111 43.8428V54.9394L67.9867 52.4746C68.6255 51.8661 69.6579 51.8661 70.2967 52.4746C70.9355 53.0882 70.9355 54.0752 70.2967 54.6888Z" fill="#04542C"/>
<path d="M70.2967 54.6888L64.9307 59.8178C64.6343 60.1246 64.2306 60.278 63.786 60.278C63.3414 60.278 62.9428 60.1246 62.6412 59.8178L57.2549 54.6888C56.6161 54.0803 56.6161 53.0882 57.2549 52.4797C57.8937 51.8712 58.926 51.8712 59.5648 52.4797L62.1404 54.9394V43.8428C62.1404 42.9786 62.8712 42.278 63.7758 42.278C64.6803 42.278 65.4111 42.9786 65.4111 43.8428V54.9394L67.9867 52.4746C68.6255 51.8661 69.6579 51.8661 70.2967 52.4746C70.9355 53.0882 70.9355 54.0752 70.2967 54.6888Z" fill="#04542C"/>
</svg>
