<svg width="120" height="94" viewBox="0 0 120 94" fill="none" xmlns="http://www.w3.org/2000/svg">
<g filter="url(#filter0_d_1227_377)">
<path d="M54.6929 52.9128V39.8983H57.2263V52.9128H54.6929ZM55.9723 37.8902C55.5317 37.8902 55.1532 37.7433 54.8369 37.4496C54.5262 37.1502 54.3709 36.7943 54.3709 36.382C54.3709 35.964 54.5262 35.6081 54.8369 35.3144C55.1532 35.015 55.5317 34.8653 55.9723 34.8653C56.4129 34.8653 56.7885 35.015 57.0992 35.3144C57.4155 35.6081 57.5737 35.964 57.5737 36.382C57.5737 36.7943 57.4155 37.1502 57.0992 37.4496C56.7885 37.7433 56.4129 37.8902 55.9723 37.8902ZM60.6346 52.9128V39.8983H63.0663V42.0165H63.2273C63.4985 41.2992 63.9419 40.7399 64.5576 40.3389C65.1733 39.9322 65.9104 39.7288 66.769 39.7288C67.6389 39.7288 68.3676 39.9322 68.9551 40.3389C69.5482 40.7456 69.986 41.3048 70.2684 42.0165H70.404C70.7146 41.3218 71.2089 40.7682 71.8867 40.3558C72.5646 39.9378 73.3723 39.7288 74.31 39.7288C75.4906 39.7288 76.4537 40.0988 77.1993 40.8388C77.9506 41.5788 78.3262 42.6944 78.3262 44.1856V52.9128H75.7928V44.4229C75.7928 43.5417 75.5527 42.9034 75.0726 42.508C74.5925 42.1126 74.0191 41.9149 73.3526 41.9149C72.5279 41.9149 71.8867 42.1691 71.4292 42.6774C70.9717 43.1802 70.7429 43.8269 70.7429 44.6178V52.9128H68.2179V44.2619C68.2179 43.5558 67.9976 42.9881 67.557 42.5588C67.1164 42.1295 66.5431 41.9149 65.837 41.9149C65.3569 41.9149 64.9135 42.042 64.5067 42.2962C64.1057 42.5447 63.7809 42.8921 63.5324 43.3383C63.2895 43.7846 63.168 44.3014 63.168 44.8889V52.9128H60.6346ZM87.3309 53.1755C86.0487 53.1755 84.9444 52.9015 84.018 52.3536C83.0972 51.8001 82.3855 51.0234 81.8828 50.0235C81.3857 49.0181 81.1372 47.8403 81.1372 46.4903C81.1372 45.1572 81.3857 43.9823 81.8828 42.9655C82.3855 41.9488 83.0859 41.1551 83.9841 40.5846C84.8879 40.0141 85.9442 39.7288 87.153 39.7288C87.8873 39.7288 88.5991 39.8503 89.2882 40.0932C89.9773 40.3361 90.5959 40.7174 91.1438 41.237C91.6917 41.7567 92.1238 42.4317 92.4402 43.2621C92.7565 44.0868 92.9146 45.0894 92.9146 46.27V47.1681H82.5691V45.2702H90.432C90.432 44.6036 90.2965 44.0134 90.0253 43.4993C89.7542 42.9796 89.3729 42.5701 88.8815 42.2707C88.3957 41.9714 87.8252 41.8217 87.1699 41.8217C86.4582 41.8217 85.8368 41.9968 85.3059 42.347C84.7805 42.6916 84.3738 43.1435 84.0858 43.7027C83.8033 44.2562 83.6621 44.8578 83.6621 45.5074V46.9902C83.6621 47.8601 83.8146 48.6001 84.1197 49.2101C84.4303 49.8202 84.8625 50.2862 85.416 50.6082C85.9696 50.9245 86.6164 51.0827 87.3563 51.0827C87.8365 51.0827 88.2743 51.0149 88.6697 50.8793C89.0651 50.7381 89.4068 50.5291 89.6949 50.2523C89.983 49.9755 90.2033 49.6338 90.3558 49.2271L92.7537 49.6592C92.5616 50.3653 92.217 50.9838 91.7199 51.5148C91.2285 52.0401 90.61 52.4497 89.8644 52.7434C89.1244 53.0315 88.2799 53.1755 87.3309 53.1755Z" fill="#64E48E"/>
<path d="M31.4406 83.5053C25.1318 80.7445 19.588 76.4839 15.2883 71.0917C10.9886 65.6994 8.06244 59.3378 6.76266 52.5566C5.46288 45.7754 5.82861 38.7787 7.82823 32.1711C9.82786 25.5635 13.4012 19.5439 18.2395 14.6324C23.0778 9.721 29.0354 6.06553 35.5974 3.98197C42.1595 1.8984 49.1285 1.44942 55.9023 2.67383C62.6761 3.89825 69.0507 6.75921 74.4754 11.0095C79.9 15.2597 84.2114 20.7714 87.037 27.0681" stroke="#73C31D" stroke-width="4" stroke-linecap="round" stroke-linejoin="round"/>
<path d="M42.9935 9.77664H42.6155C36.2515 10.5297 30.2575 13.1758 25.4047 17.3745C20.5519 21.5733 17.0621 27.1327 15.3844 33.3377" stroke="#64E48E" stroke-width="3" stroke-linecap="round" stroke-linejoin="round"/>
<path d="M55.6936 73.9081V60.8935H58.1423V62.9609H58.2779C58.5151 62.2605 58.9331 61.7098 59.5319 61.3087C60.1363 60.902 60.8198 60.6987 61.5824 60.6987C61.7405 60.6987 61.9269 60.7043 62.1416 60.7156C62.3619 60.7269 62.5342 60.741 62.6584 60.758V63.1812C62.5568 63.153 62.376 63.1219 62.1162 63.088C61.8563 63.0485 61.5965 63.0287 61.3366 63.0287C60.7379 63.0287 60.2041 63.1558 59.7352 63.41C59.2721 63.6586 58.9049 64.006 58.6338 64.4522C58.3626 64.8928 58.227 65.3955 58.227 65.9604V73.9081H55.6936ZM68.5218 74.1962C67.697 74.1962 66.9514 74.0436 66.2849 73.7386C65.6183 73.4279 65.0902 72.9789 64.7004 72.3914C64.3163 71.8039 64.1243 71.0837 64.1243 70.2308C64.1243 69.4965 64.2655 68.8921 64.5479 68.4176C64.8303 67.9431 65.2116 67.5674 65.6918 67.2907C66.1719 67.0139 66.7085 66.8049 67.3016 66.6637C67.8948 66.5224 68.4992 66.4151 69.1149 66.3417C69.8944 66.2513 70.527 66.1779 71.0128 66.1214C71.4986 66.0592 71.8516 65.9604 72.0719 65.8248C72.2922 65.6893 72.4024 65.469 72.4024 65.1639V65.1046C72.4024 64.3646 72.1934 63.7913 71.7754 63.3846C71.363 62.9779 70.7473 62.7745 69.9283 62.7745C69.0753 62.7745 68.4031 62.9638 67.9117 63.3422C67.4259 63.715 67.0898 64.1302 66.9034 64.5878L64.5225 64.0455C64.8049 63.2547 65.2173 62.6164 65.7596 62.1306C66.3075 61.6392 66.9373 61.2833 67.649 61.063C68.3608 60.837 69.1092 60.7241 69.8944 60.7241C70.4141 60.7241 70.9648 60.7862 71.5466 60.9105C72.1341 61.0291 72.682 61.2494 73.1904 61.5714C73.7044 61.8933 74.1252 62.3537 74.4529 62.9525C74.7805 63.5456 74.9443 64.3166 74.9443 65.2656V73.9081H72.4702V72.1287H72.3685C72.2047 72.4564 71.959 72.7783 71.6314 73.0947C71.3037 73.411 70.8829 73.6737 70.3689 73.8827C69.8548 74.0917 69.2391 74.1962 68.5218 74.1962ZM69.0725 72.1626C69.7729 72.1626 70.3717 72.0242 70.8688 71.7475C71.3715 71.4707 71.7528 71.1092 72.0126 70.6629C72.2781 70.211 72.4109 69.7281 72.4109 69.214V67.5364C72.3205 67.6268 72.1454 67.7115 71.8855 67.7906C71.6314 67.864 71.3404 67.929 71.0128 67.9854C70.6852 68.0363 70.366 68.0843 70.0554 68.1295C69.7447 68.169 69.4849 68.2029 69.2759 68.2312C68.7844 68.2933 68.3353 68.3978 67.9286 68.5447C67.5276 68.6915 67.2056 68.9034 66.9627 69.1801C66.7255 69.4513 66.6069 69.8128 66.6069 70.2647C66.6069 70.8917 66.8384 71.3662 67.3016 71.6882C67.7648 72.0045 68.3551 72.1626 69.0725 72.1626ZM80.6488 69.4936L80.6318 66.401H81.0724L86.2579 60.8935H89.2912L83.3771 67.1636H82.9788L80.6488 69.4936ZM78.3187 73.9081V56.5554H80.8521V73.9081H78.3187ZM86.5375 73.9081L81.8773 67.7228L83.6228 65.9519L89.6471 73.9081H86.5375ZM96.6733 74.1707C95.3911 74.1707 94.2868 73.8968 93.3604 73.3489C92.4397 72.7953 91.7279 72.0186 91.2252 71.0188C90.7281 70.0133 90.4796 68.8356 90.4796 67.4855C90.4796 66.1525 90.7281 64.9775 91.2252 63.9608C91.7279 62.944 92.4284 62.1504 93.3265 61.5798C94.2303 61.0093 95.2866 60.7241 96.4954 60.7241C97.2297 60.7241 97.9415 60.8455 98.6306 61.0884C99.3197 61.3313 99.9383 61.7126 100.486 62.2323C101.034 62.7519 101.466 63.427 101.783 64.2573C102.099 65.082 102.257 66.0847 102.257 67.2652V68.1634H91.9115V66.2654H99.7745C99.7745 65.5989 99.6389 65.0086 99.3678 64.4946C99.0966 63.9749 98.7153 63.5654 98.2239 63.266C97.7381 62.9666 97.1676 62.8169 96.5123 62.8169C95.8006 62.8169 95.1793 62.992 94.6483 63.3422C94.123 63.6868 93.7163 64.1387 93.4282 64.6979C93.1457 65.2515 93.0045 65.8531 93.0045 66.5027V67.9854C93.0045 68.8553 93.157 69.5953 93.4621 70.2054C93.7727 70.8154 94.2049 71.2814 94.7584 71.6034C95.312 71.9197 95.9588 72.0779 96.6988 72.0779C97.1789 72.0779 97.6167 72.0101 98.0121 71.8746C98.4075 71.7333 98.7492 71.5243 99.0373 71.2476C99.3254 70.9708 99.5457 70.629 99.6982 70.2223L102.096 70.6544C101.904 71.3605 101.559 71.9791 101.062 72.51C100.571 73.0354 99.9524 73.4449 99.2068 73.7386C98.4668 74.0267 97.6223 74.1707 96.6733 74.1707ZM105.068 73.9081V60.8935H107.517V62.9609H107.652C107.889 62.2605 108.307 61.7098 108.906 61.3087C109.511 60.902 110.194 60.6987 110.957 60.6987C111.115 60.6987 111.301 60.7043 111.516 60.7156C111.736 60.7269 111.909 60.741 112.033 60.758V63.1812C111.931 63.153 111.75 63.1219 111.491 63.088C111.231 63.0485 110.971 63.0287 110.711 63.0287C110.112 63.0287 109.578 63.1558 109.11 63.41C108.646 63.6586 108.279 64.006 108.008 64.4522C107.737 64.8928 107.601 65.3955 107.601 65.9604V73.9081H105.068Z" fill="#64E48E"/>
<path d="M27.7202 24.8358L46.6451 32.7365L70.7202 18.7365" stroke="white" stroke-width="3" stroke-miterlimit="10" stroke-linecap="round"/>
<path d="M46.7202 32.7365L46.7202 73.7365" stroke="white" stroke-width="3" stroke-miterlimit="10" stroke-linecap="round"/>
<path d="M41.7202 40.7365V74.148" stroke="#73C31D" stroke-linecap="round" stroke-linejoin="round"/>
</g>
<defs>
<filter id="filter0_d_1227_377" x="0" y="0" width="116.033" height="93.5058" filterUnits="userSpaceOnUse" color-interpolation-filters="sRGB">
<feFlood flood-opacity="0" result="BackgroundImageFix"/>
<feColorMatrix in="SourceAlpha" type="matrix" values="0 0 0 0 0 0 0 0 0 0 0 0 0 0 0 0 0 0 127 0" result="hardAlpha"/>
<feOffset dy="4"/>
<feGaussianBlur stdDeviation="2"/>
<feComposite in2="hardAlpha" operator="out"/>
<feColorMatrix type="matrix" values="0 0 0 0 0 0 0 0 0 0 0 0 0 0 0 0 0 0 0.25 0"/>
<feBlend mode="normal" in2="BackgroundImageFix" result="effect1_dropShadow_1227_377"/>
<feBlend mode="normal" in="SourceGraphic" in2="effect1_dropShadow_1227_377" result="shape"/>
</filter>
</defs>
</svg>
